<svg xmlns="http://www.w3.org/2000/svg" viewBox="0 0 712.58 97.35"><defs><style>.cls-1{fill:#010101;}.cls-2{fill:#29abe2;}</style></defs><title>1</title><g id="Camada_2" data-name="Camada 2"><g id="Camada_1-2" data-name="Camada 1"><path class="cls-1" d="M131.6,17.2h14.52V68.12H177.6V80h-46Z"/><path class="cls-1" d="M184.77,31.72h14V80h-14Z"/><path class="cls-1" d="M252.5,34.1a22.22,22.22,0,0,1,8.65,8.7,26.27,26.27,0,0,1,3.14,13,26.25,26.25,0,0,1-3.14,13,22.23,22.23,0,0,1-8.65,8.7,24.58,24.58,0,0,1-12.24,3.09q-10,0-15.15-6.28V80H211.75V13.43h14v23.4Q231,31,240.27,31A24.58,24.58,0,0,1,252.5,34.1Zm-5.83,31.47q3.45-3.63,3.45-9.73t-3.45-9.73a12.55,12.55,0,0,0-17.66,0q-3.45,3.63-3.45,9.73T229,65.57a12.55,12.55,0,0,0,17.66,0Z"/><path class="cls-1" d="M320.6,59.79H284.11a11.36,11.36,0,0,0,4.66,7.08,15.44,15.44,0,0,0,9.15,2.6,18.54,18.54,0,0,0,6.68-1.12A16.2,16.2,0,0,0,310,64.81l7.44,8.07q-6.81,7.8-19.9,7.8a31.49,31.49,0,0,1-14.43-3.18,23.33,23.33,0,0,1-9.68-8.83A24.32,24.32,0,0,1,270,55.84a24.65,24.65,0,0,1,3.36-12.78,23.56,23.56,0,0,1,9.23-8.88,28.6,28.6,0,0,1,26-.14,22.27,22.27,0,0,1,9,8.74A26.07,26.07,0,0,1,320.87,56Q320.87,56.29,320.6,59.79ZM287.87,44.27a11.45,11.45,0,0,0-3.95,7.35h23.76a11.58,11.58,0,0,0-3.95-7.31,11.8,11.8,0,0,0-7.89-2.73A12,12,0,0,0,287.87,44.27Z"/><path class="cls-1" d="M350.32,32.8A25.13,25.13,0,0,1,360.14,31V43.92q-2.33-.18-3.14-.18-6,0-9.41,3.36t-3.41,10.09V80h-14V31.72h13.36v6.37A15.57,15.57,0,0,1,350.32,32.8Z"/><path class="cls-1" d="M377.31,77.49a23.66,23.66,0,0,1-9.46-8.83,24.32,24.32,0,0,1-3.41-12.82A24.33,24.33,0,0,1,367.85,43a23.67,23.67,0,0,1,9.46-8.83,30.87,30.87,0,0,1,27.3,0A23.76,23.76,0,0,1,414,43a24.34,24.34,0,0,1,3.41,12.82A24.33,24.33,0,0,1,414,68.66a23.75,23.75,0,0,1-9.41,8.83,30.87,30.87,0,0,1-27.3,0Zm22.5-11.93q3.45-3.63,3.45-9.73t-3.45-9.73A11.65,11.65,0,0,0,391,42.48a11.79,11.79,0,0,0-8.88,3.63q-3.5,3.63-3.5,9.73t3.5,9.73A11.79,11.79,0,0,0,391,69.2,11.65,11.65,0,0,0,399.81,65.57Z"/><path class="cls-1" d="M467.5,34.1a22.22,22.22,0,0,1,8.65,8.7,26.27,26.27,0,0,1,3.14,13,26.25,26.25,0,0,1-3.14,13,22.23,22.23,0,0,1-8.65,8.7,24.58,24.58,0,0,1-12.24,3.09q-9.24,0-14.52-5.83v22.5h-14V31.72h13.36v5.56Q445.31,31,455.26,31A24.58,24.58,0,0,1,467.5,34.1Zm-5.83,31.47q3.45-3.63,3.45-9.73t-3.45-9.73a12.55,12.55,0,0,0-17.66,0q-3.45,3.63-3.45,9.73T444,65.57a12.55,12.55,0,0,0,17.66,0Z"/><path class="cls-1" d="M488.62,31.72h14V80h-14Z"/><path class="cls-1" d="M559.4,36.38q5.51,5.38,5.51,16V80h-14V54.49q0-5.74-2.51-8.56t-7.26-2.83a11.14,11.14,0,0,0-8.43,3.27q-3.14,3.28-3.14,9.73V80h-14V31.72H529v5.65a18.55,18.55,0,0,1,6.9-4.71A24.06,24.06,0,0,1,544.92,31Q553.89,31,559.4,36.38Z"/><path class="cls-1" d="M577.56,31.72h14V80h-14Z"/><path class="cls-1" d="M613.82,77.49a23.67,23.67,0,0,1-9.46-8.83A24.32,24.32,0,0,1,601,55.84,24.33,24.33,0,0,1,604.36,43a23.68,23.68,0,0,1,9.46-8.83,30.87,30.87,0,0,1,27.3,0A23.76,23.76,0,0,1,650.54,43a24.35,24.35,0,0,1,3.41,12.82,24.34,24.34,0,0,1-3.41,12.82,23.75,23.75,0,0,1-9.41,8.83,30.87,30.87,0,0,1-27.3,0Zm22.5-11.93q3.45-3.63,3.45-9.73t-3.45-9.73a11.65,11.65,0,0,0-8.83-3.63,11.79,11.79,0,0,0-8.88,3.63q-3.5,3.63-3.5,9.73t3.5,9.73a11.79,11.79,0,0,0,8.88,3.63A11.65,11.65,0,0,0,636.33,65.57Z"/><path class="cls-1" d="M707.07,36.38q5.51,5.38,5.51,16V80h-14V54.49q0-5.74-2.51-8.56t-7.26-2.83a11.14,11.14,0,0,0-8.43,3.27q-3.14,3.28-3.14,9.73V80h-14V31.72h13.36v5.65a18.55,18.55,0,0,1,6.9-4.71A24.06,24.06,0,0,1,692.59,31Q701.55,31,707.07,36.38Z"/><path class="cls-2" d="M489.3,22.7a7.27,7.27,0,0,1-2.42-5.56,7.27,7.27,0,0,1,2.42-5.56,8.87,8.87,0,0,1,6.28-2.24,9.09,9.09,0,0,1,6.28,2.15,6.89,6.89,0,0,1,2.42,5.38,7.61,7.61,0,0,1-2.42,5.78,8.77,8.77,0,0,1-6.28,2.29A8.87,8.87,0,0,1,489.3,22.7Z"/><path class="cls-2" d="M185.59,22.94a7.27,7.27,0,0,1-2.42-5.56,7.27,7.27,0,0,1,2.42-5.56,8.87,8.87,0,0,1,6.28-2.24,9.09,9.09,0,0,1,6.28,2.15,6.89,6.89,0,0,1,2.42,5.38,7.61,7.61,0,0,1-2.42,5.78,8.77,8.77,0,0,1-6.28,2.29A8.87,8.87,0,0,1,185.59,22.94Z"/><path class="cls-2" d="M578.27,22.76a7.27,7.27,0,0,1-2.42-5.56,7.27,7.27,0,0,1,2.42-5.56,8.87,8.87,0,0,1,6.28-2.24,9.09,9.09,0,0,1,6.28,2.15,6.89,6.89,0,0,1,2.42,5.38,7.61,7.61,0,0,1-2.42,5.78A8.77,8.77,0,0,1,584.54,25,8.87,8.87,0,0,1,578.27,22.76Z"/><path class="cls-2" d="M53,80.64a87.1,87.1,0,0,1-15.5,5.16l-4,.78c-.57.1-1.14.18-1.72.25q2,2.33,4.12,4.53c2,2.06,4.06,4,6.21,5.92a43.48,43.48,0,0,0,18.35-4L54.32,80C53.89,80.22,53.47,80.44,53,80.64Z"/><path class="cls-2" d="M74.13,58a87.41,87.41,0,0,0-4.77-14.2l-2.83,1.42L62.83,47l-7.4,3.58L45.18,55.43l5.6,12.26c1.42,3.21,2.87,6.41,4.28,9.62A94.12,94.12,0,0,0,75.23,63.56c-.08-.55-.16-1.1-.27-1.65Z"/><path class="cls-2" d="M76.07,57.55l.78,4c0,.15,0,.3.07.46l1.4-1.33c2.53-2.44,4.92-5,7.2-7.7A43.48,43.48,0,0,0,82.2,37.36l-10.95,5.5A87,87,0,0,1,76.07,57.55Z"/><path class="cls-2" d="M76.29,73.8c-.06-1.33-.19-2.65-.29-4l-.15-2-.29-2,0-.16c-.66.58-1.33,1.15-2,1.74-1,.91-2.1,1.72-3.15,2.58s-2.16,1.65-3.26,2.44a90.4,90.4,0,0,1-11.24,6.77q.76,1.74,1.5,3.5l4.26,10A43,43,0,0,0,76.25,80.8C76.35,78.47,76.37,76.13,76.29,73.8Z"/><path class="cls-2" d="M77.22,64.13c.06.49.12,1,.19,1.48l.26,2c0,.68.09,1.36.11,2,.05,1.36.14,2.71.16,4.07l-.09,4.07c0,.29,0,.57,0,.86a43.73,43.73,0,0,0,2.34-3.77,43.08,43.08,0,0,0,5.35-19.8c-1.92,2.34-3.93,4.62-6,6.8C78.75,62.66,78,63.39,77.22,64.13Z"/><path class="cls-2" d="M40.57,57.6,25.62,64.43,19,67.4A93.06,93.06,0,0,0,30.39,85.12c.93-.13,1.87-.26,2.79-.44l3.9-.83A87.14,87.14,0,0,0,52.16,78.7l1.27-.6L43.28,56.32Z"/><path class="cls-2" d="M31.89,89.64c-.79-.8-1.51-1.67-2.25-2.52l-.15,0-2,.26c-.68,0-1.36.09-2,.11-1.36.05-2.71.14-4.07.16l-4.07-.09c-.68,0-1.35,0-2-.07l-.46,0A43.26,43.26,0,0,0,40,97.23c-1.78-1.52-3.52-3.08-5.2-4.71C33.76,91.6,32.85,90.6,31.89,89.64Z"/><path class="cls-2" d="M21.3,86c1.33-.06,2.65-.19,4-.29l2-.15.93-.14c-.53-.66-1.05-1.33-1.59-2-.87-1-1.65-2.16-2.44-3.26a90.57,90.57,0,0,1-7.11-11.94c-2.15,1-4.31,1.9-6.48,2.81L3.84,73.94a43,43,0,0,0,9.18,12Q17.16,86.15,21.3,86Z"/><path class="cls-2" d="M30,30.83A87.1,87.1,0,0,0,16,39.3l-3.19,2.55c-.45.37-.87.76-1.3,1.15q-.49-3-.78-6.07c-.28-2.85-.44-5.71-.49-8.57A43.48,43.48,0,0,1,25.17,17l6.09,13.28C30.83,30.46,30.39,30.63,30,30.83Z"/><path class="cls-2" d="M60.86,29.43a87.41,87.41,0,0,1,7.73,12.83L65.67,43.5l-3.76,1.66L54.4,48.47,44.07,53.15,38.36,41c-1.53-3.16-3-6.34-4.56-9.5A94.12,94.12,0,0,1,57.34,25c.37.42.73.84,1.08,1.27Z"/><path class="cls-2" d="M62.47,28.24,59.92,25l-.3-.35,1.92-.21c3.5-.35,7-.5,10.53-.5a43.48,43.48,0,0,1,9.76,12.66L70.54,41.43A87,87,0,0,0,62.47,28.24Z"/><path class="cls-2" d="M50.23,17.55c1,.91,1.9,1.87,2.85,2.8l1.42,1.41,1.32,1.5.1.12-2.61.38c-1.35.17-2.67.49-4,.73s-2.65.58-4,.9a90.4,90.4,0,0,0-12.44,4.18q-.84-1.71-1.69-3.41l-4.83-9.7A43,43,0,0,1,44.87,13Q47.63,15.2,50.23,17.55Z"/><path class="cls-2" d="M58.2,23.11l-1-1.1L55.82,20.5c-.49-.47-1-.95-1.48-1.41-1-.92-2-1.87-3-2.76l-3.15-2.57-.66-.54a43.73,43.73,0,0,1,4.39.66,43.08,43.08,0,0,1,18.55,8.75c-3-.05-6.06,0-9.09.21C60.31,22.89,59.26,23,58.2,23.11Z"/><path class="cls-2" d="M39.43,55.26l-14.88,7c-2.19,1.06-4.38,2.1-6.57,3.15a93.06,93.06,0,0,1-6.11-20.19c.7-.63,1.41-1.26,2.14-1.84l3.16-2.43a87.14,87.14,0,0,1,13.69-8.15l1.28-.58L42.16,54Z"/><path class="cls-2" d="M9.4,41.12c.1,1.12.29,2.23.46,3.35l-.11.1L8.25,45.95c-.47.49-.95,1-1.41,1.48-.92,1-1.87,2-2.76,3L1.52,53.57c-.42.53-.87,1-1.26,1.59L0,55.54A43.26,43.26,0,0,1,8.84,30.06c0,2.34.07,4.68.22,7C9.12,38.43,9.29,39.77,9.4,41.12Z"/><path class="cls-2" d="M5.3,51.54c.91-1,1.87-1.9,2.8-2.85l1.41-1.42.71-.62c.16.83.33,1.67.49,2.5.23,1.34.58,2.65.9,4a90.57,90.57,0,0,0,4.49,13.16c-2.12,1-4.24,2-6.34,3.11L3.2,72.66A43,43,0,0,1,0,57.9Q2.52,54.61,5.3,51.54Z"/><path class="cls-2" d="M83.21,22.28s.5-13,14.45-22.28C97.18,15.92,83.21,22.28,83.21,22.28Z"/><path class="cls-2" d="M89.19,33.37s7.54-10.59,24.31-10.7C104.35,35.71,89.19,33.37,89.19,33.37Z"/><path class="cls-2" d="M93.14,45.56s11.89-5.26,26.37,3.2C105,55.31,93.14,45.56,93.14,45.56Z"/></g></g></svg>