<svg id="Camada_1" data-name="Camada 1" xmlns="http://www.w3.org/2000/svg" viewBox="0 0 214.4 321.3"><defs><style>.cls-1,.cls-13,.cls-8{fill:#f4b845;}.cls-2{fill:#567f90;}.cls-3{fill:#321210;}.cls-4{fill:#24a4aa;}.cls-5{fill:#21a4aa;}.cls-6{fill:#fff;}.cls-7{fill:#010101;}.cls-8,.cls-9{opacity:0.5;}.cls-13,.cls-8,.cls-9{isolation:isolate;}.cls-9{fill:#f39a22;}.cls-10{fill:#231f20;}.cls-11{fill:#ee7164;}.cls-12{fill:#f58a7f;}.cls-13{font-size:112.84px;font-family:NuevaStd-Bold, Nueva Std;font-weight:700;letter-spacing:-0.03em;}</style></defs><title>Prancheta 1</title><g id="Camada_1-2" data-name="Camada 1"><g id="Layer_2" data-name="Layer 2"><g id="Layer_8" data-name="Layer 8"><path class="cls-1" d="M137,256.5h0c-1.3.2-2.4.3-2.7-.6a27.16,27.16,0,0,1-1.1-3.4l-1.3-6.8-3.6-54.6c-.8-3.7,4.9-9.1,8.3-8l1.5.2c3,.9,5.8,3.7,5.9,7l-2.4,61.8A4.68,4.68,0,0,1,137,256.5Z"/><path class="cls-1" d="M131.4,316.5h0c-3.2-.1-1.3-10.9-1-13.2l3.1-54.7c.9-2.4,1.7-4.2,4.1-3.9h1.3c1.5.2,2.3,2.3,2.6,4.7l-7.2,63.2C133.8,315.6,133.1,317,131.4,316.5Z"/><path class="cls-1" d="M112,256.6h0c1.3.2,2.4.3,2.7-.6a27.16,27.16,0,0,0,1.1-3.4l1.3-6.8,3.6-54.6c.8-3.7-4.8-9.1-8.3-8l-1.5.2c-3.1.9-5.8,3.7-5.9,7l2.4,61.8A4.84,4.84,0,0,0,112,256.6Z"/><path class="cls-1" d="M117.7,316.5h0c3.2-.1,1.3-10.9,1-13.2l-3.1-54.7c-.9-2.4-1.7-4.2-4.1-3.9h-1.3c-1.5.2-2.3,2.3-2.6,4.7l7.2,63.2C115.2,315.6,115.9,317.1,117.7,316.5Z"/><path class="cls-2" d="M134.1,312.2s3.5,3.8,6.8,5.2,3.5,1.6,2.4,3.1c0,0-6.6,1.4-9.2.4s-3.6-2.8-5.5-3,1.4-6,1.4-6Z"/><path class="cls-3" d="M128.4,317.6c2,.2,3.1,2,5.8,3,2.4.8,8-.2,9.4-.5l-.3.4s-6.6,1.4-9.2.4-3.6-2.8-5.5-3a.66.66,0,0,1-.5-.4C128.2,317.6,128.3,317.7,128.4,317.6Z"/><path class="cls-2" d="M114.8,311.1s-3.6,3.8-6.8,5.2-3.5,1.6-2.3,3.1c0,0,6.6,1.4,9.2.4s3.6-2.8,5.5-3-1.3-6-1.3-6Z"/><path class="cls-3" d="M120.5,316.5c-2,.2-3.1,2-5.8,3-2.4.8-8-.2-9.4-.5l.3.4s6.6,1.4,9.2.4,3.6-2.8,5.5-3a.66.66,0,0,0,.5-.4A.37.37,0,0,1,120.5,316.5Z"/><path class="cls-2" d="M108.4,223.4s5,1.6,8.3-.2,11.4-13.8,16.1-26.5c0,0-14.1-6.5-26.5-5.3C106.3,191.4,101.8,221.7,108.4,223.4Z"/><path class="cls-2" d="M141.1,223.6s-5,1.6-8.3-.2-11.4-13.8-16.1-26.5c0,0,14.1-6.5,26.5-5.3C143.2,191.6,147.7,221.9,141.1,223.6Z"/><path class="cls-4" d="M110,84.7s-17.5-9-21.4-34C110.2,61.5,110,84.7,110,84.7Z"/><path class="cls-4" d="M125.5,85.7s-6.8-18.5,7.4-39.5C141.4,68.8,125.5,85.7,125.5,85.7Z"/><path class="cls-4" d="M146.4,88.9s.4-19.7,21.2-34.1C167.3,78.9,146.4,88.9,146.4,88.9Z"/><path class="cls-5" d="M86.2,108.3a145.24,145.24,0,0,0-17,6.5h0c-.6,1.3-1.2,2.6-1.7,4a59.91,59.91,0,0,0-3.9,22.1l13.1-.1,9.7-.1Z"/><path class="cls-5" d="M121.9,144.4v-.8l-16.1.1-16.1.2v.1l.3,29.7,5.3,1.5,2.4.6c2.8.6,5.6,1.2,8.4,1.6.6.1,1.1.1,1.7.2,2.3.3,4.5.6,6.8.8,1,.1,2,.1,3.1.2,1.5.1,3.1.2,4.6.2Z"/><path class="cls-5" d="M157.2,151.5l-.1-8.3-16,.1-16,.2v.7l.3,34.6c1.5,0,3-.1,4.5-.1,1-.1,2-.1,3-.1,2.2-.2,4.4-.4,6.7-.7.6-.1,1.1-.1,1.7-.2,2.8-.4,5.6-.9,8.4-1.4.8-.2,1.7-.4,2.6-.6,1.8-.4,3.5-.8,5.3-1.3Z"/><path class="cls-5" d="M89.7,140.6l16.1-.2,16.1-.2-.3-38.1a133.57,133.57,0,0,0-32.1,5.1Z"/><path class="cls-5" d="M125.1,140.3l16-.2,16-.1-.3-33.5a116.09,116.09,0,0,0-32.1-4.3Z"/><path class="cls-5" d="M68.8,164.9c1.5.8,3,1.5,4.5,2.3l.7.3c1.4.7,2.8,1.3,4.2,1.9l1.7.7c1.1.4,2.1.9,3.2,1.3.6.2,1.3.5,1.9.7s1.2.4,1.9.6l-.2-23.9V144H69.9l-6.1.1A59.82,59.82,0,0,0,68.8,164.9Z"/><path class="cls-5" d="M160.4,143.2l.3,30.2.8-.3c2.8-.8,5.7-1.8,8.5-2.8l.8-.3c2.8-1,5.6-2.2,8.4-3.4l.5-.2a62.19,62.19,0,0,0,5.9-23.5Z"/><path class="cls-5" d="M171.1,139.9l14.4-.1a59.07,59.07,0,0,0-5-23.8,126.53,126.53,0,0,0-20.5-8.5l.3,32.6Z"/><path class="cls-5" d="M122.3,189.6l-.1-7.6c-1.8,0-3.6-.2-5.4-.3a19.27,19.27,0,0,0-2.4-.1c-2.9-.2-5.7-.6-8.6-1l-1.7-.3c-2.3-.4-4.5-.8-6.8-1.3-1-.2-2-.5-3-.8-1.4-.4-2.8-.7-4.2-1.1l.1,13.6a60.88,60.88,0,0,0,32.2,10.6Z"/><path class="cls-5" d="M176.8,171.1c-2.4,1-4.8,1.9-7.2,2.8l-1.6.6c-2.1.7-4.1,1.4-6.2,2-.3.1-.7.2-1,.3l.1,12.6.3-.2A60,60,0,0,0,177.4,171Z"/><path class="cls-5" d="M86.8,176c-.3-.1-.7-.3-1-.4-2-.7-3.9-1.4-5.9-2.1l-1.7-.7c-2.3-.9-4.6-1.9-6.8-3l-.3-.1a65.41,65.41,0,0,0,4.5,7.1,60.47,60.47,0,0,0,11.2,11.4Z"/><path class="cls-5" d="M157.6,191.5l-.1-10.5v-3.4h0c-1.6.4-3.1.7-4.7,1.1l-2.8.6c-2.5.5-5,.9-7.5,1.3a3.55,3.55,0,0,0-1,.2c-2.8.4-5.7.7-8.5.9a19.27,19.27,0,0,1-2.4.1c-1.7.1-3.4.2-5.1.2l.2,19.2A60.33,60.33,0,0,0,157.6,191.5Z"/><path class="cls-6" d="M185,153.5a59.59,59.59,0,0,1-13.4,25.6c-11.1,12.4-27.4,22.5-47.8,22.2-18-.4-32.7-8.6-43.5-19-9.2-8.8-13.8-19.4-15.7-31.1-4.5-26.7,28-48.4,61.2-47.7S191.6,127.3,185,153.5Z"/><path class="cls-5" d="M180.5,115.9a59.07,59.07,0,0,1,5,23.8l-14.4.1-10.8.1-.3-32.6A136.62,136.62,0,0,1,180.5,115.9Zm-19.7,73.4-.1-12.6c.3-.1.7-.2,1-.3,2.1-.6,4.1-1.3,6.2-2l1.6-.6c2.4-.9,4.8-1.8,7.2-2.8l.5-.2A58.54,58.54,0,0,1,161,188.9ZM63.6,140.9a59.2,59.2,0,0,1,3.9-22.1c.5-1.3,1.1-2.7,1.7-4h0a165.52,165.52,0,0,1,17-6.5l.3,32.4-9.8.1Zm86,35.2a81.74,81.74,0,0,1-8.4,1.4c-.6.1-1.1.1-1.7.2-2.2.3-4.5.5-6.7.7-1,.1-2,.1-3,.1-1.5.1-3,.1-4.5.1L125,144v-.7l16-.2,16-.2.1,8.3.2,22.7c-1.8.5-3.5.9-5.3,1.3a5,5,0,0,1-2.4.9Zm-35.1,2.3c-2.3-.2-4.5-.5-6.8-.8-.6-.1-1.1-.1-1.7-.2-2.8-.4-5.6-1-8.4-1.6l-2.4-.6a46.08,46.08,0,0,1-5.3-1.5L89.7,144v-.1l16.1-.2,16.1-.1v.8l.3,34.4c-1.5,0-3.1-.1-4.6-.2A30.29,30.29,0,0,0,114.5,178.4ZM157.1,140l-16,.1-16,.2-.4-38.2a115.59,115.59,0,0,1,32.1,4.3Zm-35.3.3-16.1.2-16.1.2-.3-33.3a133.57,133.57,0,0,1,32.1-5.1Zm-52,3.7,16.7-.2v4.8l.2,23.9c-.6-.2-1.2-.4-1.9-.6a14.58,14.58,0,0,1-1.9-.7,30.54,30.54,0,0,1-3.2-1.3l-1.7-.7c-1.4-.6-2.8-1.2-4.2-1.9l-.7-.3c-1.5-.7-3-1.5-4.5-2.3a60.5,60.5,0,0,1-5.1-20.8Zm1.4,25.7.3.1c2.3,1.1,4.5,2.1,6.8,3l1.7.6c2,.8,3.9,1.5,5.9,2.1.3.1.7.3,1,.4l.1,12.2a61,61,0,0,1-11.2-11.5,48.7,48.7,0,0,1-4.6-6.9Zm19,20.9L90,177c1.4.4,2.8.7,4.2,1.1,1,.3,2,.6,3,.8,2.2.5,4.5.9,6.8,1.3l1.7.3c2.8.4,5.7.8,8.6,1a19.27,19.27,0,0,0,2.4.1c1.8.1,3.6.3,5.4.3l.1,7.6.2,11.7a60.88,60.88,0,0,1-32.2-10.6Zm35.2-8.6c1.7,0,3.4-.1,5.1-.2a19.27,19.27,0,0,0,2.4-.1c2.8-.2,5.7-.5,8.5-.9a3.55,3.55,0,0,0,1-.2c2.5-.4,5-.8,7.5-1.3l2.8-.6c1.6-.4,3.1-.7,4.7-1.1h0V181l.1,10.5a60.4,60.4,0,0,1-32,9.7Zm54.2-15.6-.5.2c-2.8,1.2-5.6,2.4-8.4,3.4l-.8.3c-2.8,1-5.7,2-8.5,2.8l-.8.3-.3-30.2,25.1-.3a56.19,56.19,0,0,1-5.8,23.5Z"/><path class="cls-1" d="M86.7,143.4a13,13,0,0,0,2.2,7.2c3,4.2,8.3,4.3,11.4.1a12.81,12.81,0,0,0,.1-14.5c-3.2-4.4-8.6-4.3-11.6.2A14.32,14.32,0,0,0,86.7,143.4Z"/><path class="cls-1" d="M93.8,122.9a10.8,10.8,0,0,0-11,8.2,3.59,3.59,0,0,0-.2,1.1,1.4,1.4,0,0,0,1.4,1.2,1.8,1.8,0,0,0,.9-.4,10.09,10.09,0,0,0,.7-1.5c1.6-4.6,5.3-6.4,10.3-5.6a9,9,0,0,0,1.6.3,1.33,1.33,0,0,0,1.5-1,1.48,1.48,0,0,0-.8-1.6A13.08,13.08,0,0,0,93.8,122.9Z"/><path class="cls-7" d="M99.6,143.4a6.9,6.9,0,0,1-1.5,4.8,4.29,4.29,0,0,1-5.9,1,3.46,3.46,0,0,1-1-1.1,8.3,8.3,0,0,1,0-9.3c2-2.6,5.2-2.6,7.2.1A7.12,7.12,0,0,1,99.6,143.4Z"/><path class="cls-6" d="M92.4,136c-2.7,1.8-3.2,6.4-3.2,6.4h3.2Z"/><path class="cls-1" d="M163.3,143.5a13,13,0,0,1-2.2,7.2c-3,4.2-8.3,4.3-11.4.1a12.81,12.81,0,0,1-.1-14.5c3.2-4.4,8.6-4.3,11.6.2A15,15,0,0,1,163.3,143.5Z"/><path class="cls-1" d="M156.1,123a10.8,10.8,0,0,1,11,8.2,3.59,3.59,0,0,1,.2,1.1,1.4,1.4,0,0,1-1.4,1.2,1.19,1.19,0,0,1-.9-.5,10.09,10.09,0,0,1-.7-1.5c-1.6-4.6-5.3-6.4-10.3-5.6a9,9,0,0,1-1.6.3,1.33,1.33,0,0,1-1.5-1,1.36,1.36,0,0,1,.8-1.6A17.23,17.23,0,0,1,156.1,123Z"/><path class="cls-7" d="M150.3,143.5a7.43,7.43,0,0,0,1.5,4.8,4.17,4.17,0,0,0,5.8,1,3.46,3.46,0,0,0,1-1.1,8,8,0,0,0,0-9.3c-2-2.6-5.2-2.6-7.2.1A10,10,0,0,0,150.3,143.5Z"/><path class="cls-6" d="M157.6,136.1c2.6,1.8,3.2,6.4,3.2,6.4h-3.2Z"/><path class="cls-1" d="M36.5,233.2a1.65,1.65,0,0,0,1.2,1.8,1.16,1.16,0,0,0,1.5-.8c0-.1,0-.2.1-.2s9.2-30.9,13.1-39c0,0,1.9-3.6-.8-4.4-3-1-4.2,3.6-4.2,3.6A331.86,331.86,0,0,0,36.5,233.2Z"/><path class="cls-1" d="M62.3,164.6s-6,7.4-14.2,28c-.3.7-1.1,3.7,1,4.7,1.3.6,2.5-1.1,3.4-2.8.4-1,.8-1.9,1.2-2.9h0l-1.2,2.9c3.8-9.6,8.2-18.5,11.6-23.6,0,0,3.4-4.7,2.3-7C65.1,160.7,62.3,164.6,62.3,164.6Z"/><path class="cls-8" d="M62.3,164.6a39.55,39.55,0,0,0-2.8,4.3,17,17,0,0,0,4.3,2.6l.5-.7s3.4-4.7,2.3-7C65.1,160.7,62.3,164.6,62.3,164.6Z"/><path class="cls-5" d="M71.3,157a4.54,4.54,0,0,0-3.2-.6c-1.5.5-6,4.9-9.4,10,0,0,4.6,4,9.5,4.6C68.3,171,73.6,158.3,71.3,157Z"/><path class="cls-1" d="M212.4,233.3a1.65,1.65,0,0,1-1.2,1.8,1.19,1.19,0,0,1-1.5-.7.37.37,0,0,0-.1-.3s-9.2-31-13.1-39c0,0-1.9-3.6.8-4.4,3-.9,4.1,3.7,4.1,3.7A307.76,307.76,0,0,1,212.4,233.3Z"/><path class="cls-1" d="M186.6,164.7s6.1,7.4,14.2,28c.2.7,1.1,3.7-1,4.7-1.3.6-2.5-1.1-3.4-2.8-.4-1-.8-1.9-1.2-2.9h0l1.2,2.9c-3.8-9.6-8.2-18.5-11.6-23.6,0,0-3.4-4.7-2.3-7C183.8,160.8,186.6,164.7,186.6,164.7Z"/><path class="cls-9" d="M186.6,164.7c1,1.4,2,2.8,2.9,4.3a17,17,0,0,1-4.3,2.6,1.79,1.79,0,0,0-.5-.7s-3.4-4.7-2.3-7C183.8,160.8,186.6,164.7,186.6,164.7Z"/><path class="cls-5" d="M177.6,157.1a4.54,4.54,0,0,1,3.2-.6c1.5.5,6,4.9,9.4,10,0,0-4.7,4-9.6,4.5C180.6,171.1,175.3,158.4,177.6,157.1Z"/><path class="cls-10" d="M122.9,164.4c-5.6,0-12,.2-11.9,3.5s5.7,10.9,11.9,10.6,13-7,11.8-10.7S126,164.4,122.9,164.4Z"/><path class="cls-11" d="M118.1,176.5a3,3,0,0,1-1.4-2.3,3,3,0,0,1,1.7-2.7,4.19,4.19,0,0,1,3.3.1.6.6,0,0,0,.4.1,1.42,1.42,0,0,0,.6-.2,5.36,5.36,0,0,1,3.9-.6,3.19,3.19,0,0,1,2.5,2.9,3.49,3.49,0,0,1-1.7,2.7,8.57,8.57,0,0,1-3.2,1A8.7,8.7,0,0,1,118.1,176.5Z"/><path class="cls-12" d="M117.6,174.3a2.23,2.23,0,0,1,1-2.6,3,3,0,0,1,2.6.4c.2.1.3.1.5.2a1.42,1.42,0,0,0,.6-.2,2,2,0,0,1,1.1-.3.9.9,0,0,1,.9,1.1.76.76,0,0,1-.6.8,2.48,2.48,0,0,1-1.7,0,9.36,9.36,0,0,0-1.6-.4,1.15,1.15,0,0,0-1.2.5,1.44,1.44,0,0,0,.4,1.5c.4.4,1.6,1,1.6,1.5.1.8-1.8,0-2.4-.6A5.54,5.54,0,0,1,117.6,174.3Z"/></g></g></g><g id="Camada_2" data-name="Camada 2"><text class="cls-13" transform="translate(41.33 101.33) rotate(-23.14)">?</text></g></svg>