<svg xmlns="http://www.w3.org/2000/svg" viewBox="0 0 2369.5 323.71"><defs><style>.cls-1{fill:#010101;}.cls-2{fill:#29abe2;}</style></defs><title>liberopinion</title><g id="Camada_2" data-name="Camada 2"><g id="Camada_1-2" data-name="Camada 1"><path class="cls-1" d="M437.61,57.19h48.3V226.52H590.55v39.36H437.61Z"/><path class="cls-1" d="M614.4,105.49h46.51V265.88H614.4Z"/><path class="cls-1" d="M839.64,113.38A73.89,73.89,0,0,1,868.4,142.3q10.43,18.64,10.43,43.38T868.4,229.06A73.9,73.9,0,0,1,839.64,258a81.75,81.75,0,0,1-40.69,10.28q-33.09,0-50.39-20.88v18.49H704.13V44.67h46.51v77.81q17.59-19.37,48.3-19.38A81.75,81.75,0,0,1,839.64,113.38ZM820.26,218q11.47-12.08,11.48-32.35t-11.48-32.35q-11.48-12.08-29.37-12.08t-29.37,12.08Q750,165.41,750,185.68T761.52,218Q773,230.1,790.89,230.1T820.26,218Z"/><path class="cls-1" d="M1066.06,198.8H944.72a37.76,37.76,0,0,0,15.5,23.55Q972.44,231,990.64,231a61.65,61.65,0,0,0,22.21-3.73,53.85,53.85,0,0,0,18-11.78l24.74,26.83q-22.66,25.94-66.18,25.94-27.13,0-48-10.58t-32.2-29.37q-11.33-18.78-11.33-42.63,0-23.55,11.18-42.49a78.36,78.36,0,0,1,30.71-29.51q19.53-10.58,43.68-10.58,23.55,0,42.63,10.13a74.06,74.06,0,0,1,30,29.07q10.88,18.93,10.88,44Q1067,187.18,1066.06,198.8ZM957.25,147.22q-10.74,8.94-13.12,24.45h79q-2.39-15.21-13.12-24.3t-26.24-9.09Q968,138.28,957.25,147.22Z"/><path class="cls-1" d="M1164.89,109.06q14.16-6,32.65-6V146q-7.76-.59-10.44-.6-20,0-31.3,11.18t-11.33,33.54v75.73H1098V105.49h44.42v21.17A51.77,51.77,0,0,1,1164.89,109.06Z"/><path class="cls-1" d="M1254.63,257.68a78.69,78.69,0,0,1-31.45-29.37q-11.33-18.78-11.33-42.63T1223.18,143a78.72,78.72,0,0,1,31.45-29.36q20.12-10.58,45.47-10.58t45.32,10.58a79,79,0,0,1,31.3,29.36Q1388,161.83,1388,185.68t-11.33,42.63a79,79,0,0,1-31.3,29.37q-20,10.58-45.32,10.58T1254.63,257.68ZM1329.46,218q11.47-12.08,11.48-32.35t-11.48-32.35q-11.48-12.08-29.37-12.08t-29.51,12.08Q1259,165.41,1259,185.68T1270.58,218q11.63,12.08,29.51,12.08T1329.46,218Z"/><path class="cls-1" d="M1554.56,113.38a73.89,73.89,0,0,1,28.77,28.92q10.43,18.64,10.43,43.38t-10.43,43.37A73.9,73.9,0,0,1,1554.56,258a81.75,81.75,0,0,1-40.69,10.28q-30.71,0-48.3-19.38v74.83h-46.51V105.49h44.42V124q17.29-20.86,50.39-20.87A81.75,81.75,0,0,1,1554.56,113.38ZM1535.18,218q11.47-12.08,11.48-32.35t-11.48-32.35q-11.48-12.08-29.37-12.08t-29.37,12.08Q1465,165.41,1465,185.68T1476.45,218q11.47,12.08,29.37,12.08T1535.18,218Z"/><path class="cls-1" d="M1624.76,105.49h46.51V265.88h-46.51Z"/><path class="cls-1" d="M1860.14,121q18.33,17.89,18.33,53.07v91.83H1832V181.21q0-19.07-8.35-28.47t-24.14-9.4q-17.6,0-28,10.88T1761,186.58v79.3H1714.5V105.49h44.42v18.78a61.67,61.67,0,0,1,23-15.65A80,80,0,0,1,1812,103.1Q1841.8,103.1,1860.14,121Z"/><path class="cls-1" d="M1920.51,105.49H1967V265.88h-46.51Z"/><path class="cls-1" d="M2041.1,257.68a78.7,78.7,0,0,1-31.45-29.37q-11.33-18.78-11.33-42.63T2009.65,143a78.74,78.74,0,0,1,31.45-29.36q20.13-10.58,45.47-10.58t45.32,10.58A79,79,0,0,1,2163.19,143q11.32,18.79,11.33,42.64t-11.33,42.63a79,79,0,0,1-31.31,29.37q-20,10.58-45.32,10.58T2041.1,257.68ZM2115.93,218q11.47-12.08,11.48-32.35t-11.48-32.35q-11.47-12.08-29.36-12.08t-29.51,12.08q-11.63,12.08-11.63,32.35T2057.06,218q11.63,12.08,29.51,12.08T2115.93,218Z"/><path class="cls-1" d="M2351.17,121q18.33,17.89,18.33,53.07v91.83H2323V181.21q0-19.07-8.35-28.47t-24.14-9.4q-17.6,0-28,10.88T2252,186.58v79.3h-46.51V105.49h44.42v18.78a61.67,61.67,0,0,1,23-15.65A80,80,0,0,1,2303,103.1Q2332.82,103.1,2351.17,121Z"/><path class="cls-2" d="M1627,75.48A24.17,24.17,0,0,1,1619,57,24.18,24.18,0,0,1,1627,38.5q8-7.45,20.87-7.45t20.87,7.16a22.92,22.92,0,0,1,8.05,17.88,25.31,25.31,0,0,1-8.05,19.23q-8,7.6-20.87,7.61T1627,75.48Z"/><path class="cls-2" d="M617.14,76.3a24.17,24.17,0,0,1-8.05-18.49,24.18,24.18,0,0,1,8.05-18.49q8-7.45,20.87-7.45T658.88,39a22.92,22.92,0,0,1,8.05,17.88,25.31,25.31,0,0,1-8.05,19.23q-8,7.6-20.87,7.61T617.14,76.3Z"/><path class="cls-2" d="M1922.87,75.67a24.17,24.17,0,0,1-8.05-18.49,24.18,24.18,0,0,1,8.05-18.49q8-7.45,20.87-7.45t20.87,7.16a22.92,22.92,0,0,1,8.05,17.88,25.31,25.31,0,0,1-8.05,19.23q-8,7.6-20.87,7.61T1922.87,75.67Z"/><path class="cls-2" d="M176.38,268.16a289.64,289.64,0,0,1-51.53,17.15l-13.33,2.61c-1.89.33-3.8.58-5.71.83q6.62,7.74,13.7,15.07c6.61,6.85,13.52,13.4,20.65,19.69a144.58,144.58,0,0,0,61-13.42l-20.53-44C179.21,266.75,177.81,267.49,176.38,268.16Z"/><path class="cls-2" d="M246.49,192.89a290.66,290.66,0,0,0-15.86-47.22l-9.41,4.72-12.29,6-24.6,11.89-34.09,16.07,18.62,40.75c4.72,10.68,9.53,21.32,14.24,32a313,313,0,0,0,67-45.72c-.27-1.83-.54-3.66-.89-5.48Z"/><path class="cls-2" d="M253,191.37l2.61,13.33c.09.5.14,1,.22,1.52q2.35-2.19,4.66-4.42c8.41-8.12,16.36-16.69,23.94-25.59a144.57,144.57,0,0,0-11.05-52l-36.4,18.28A289.14,289.14,0,0,1,253,191.37Z"/><path class="cls-2" d="M253.68,245.39c-.2-4.42-.64-8.82-1-13.23l-.51-6.61-.95-6.57c0-.17,0-.35-.07-.52-2.19,1.94-4.41,3.84-6.59,5.79-3.34,3-7,5.71-10.47,8.56s-7.18,5.47-10.84,8.13a300.6,300.6,0,0,1-37.38,22.51q2.53,5.8,5,11.63l14.17,33.15a143.09,143.09,0,0,0,48.49-39.54C253.87,260.93,253.93,253.16,253.68,245.39Z"/><path class="cls-2" d="M256.78,213.24c.2,1.64.4,3.28.62,4.91l.85,6.73c.13,2.26.29,4.51.38,6.77.17,4.52.48,9,.54,13.53l-.3,13.52c0,.95,0,1.9-.06,2.84A145.42,145.42,0,0,0,266.6,249a143.24,143.24,0,0,0,17.79-65.83c-6.39,7.79-13.07,15.35-20.11,22.6C261.88,208.34,259.31,210.78,256.78,213.24Z"/><path class="cls-2" d="M134.89,191.54l-49.7,22.71c-7.39,3.26-14.75,6.57-22.12,9.86a309.46,309.46,0,0,0,38,58.95c3.11-.44,6.21-.86,9.29-1.46l13-2.77a289.75,289.75,0,0,0,50.13-17.12c1.41-.65,2.82-1.32,4.22-2L143.9,187.29Z"/><path class="cls-2" d="M106,298.06c-2.63-2.67-5-5.55-7.49-8.38l-.48.06-6.73.85c-2.26.13-4.51.29-6.77.38-4.52.17-9,.48-13.53.54l-13.52-.3c-2.25-.09-4.5,0-6.74-.24l-1.51-.13a143.85,143.85,0,0,0,83.58,32.49c-5.92-5-11.71-10.25-17.3-15.67C112.26,304.58,109.22,301.25,106,298.06Z"/><path class="cls-2" d="M70.83,286c4.42-.2,8.82-.64,13.23-1l6.61-.51,3.11-.45c-1.78-2.19-3.5-4.43-5.29-6.62-2.88-3.48-5.47-7.18-8.13-10.84a301.18,301.18,0,0,1-23.66-39.72c-7.15,3.17-14.32,6.32-21.53,9.35l-22.39,9.57A143.15,143.15,0,0,0,43.32,285.7Q57.06,286.45,70.83,286Z"/><path class="cls-2" d="M99.61,102.52a289.64,289.64,0,0,0-46.44,28.15l-10.62,8.47c-1.48,1.23-2.91,2.52-4.33,3.81q-1.61-10.06-2.61-20.2c-.94-9.47-1.45-19-1.63-28.49A144.58,144.58,0,0,1,83.71,56.48L104,100.65C102.51,101.28,101,101.87,99.61,102.52Z"/><path class="cls-2" d="M202.36,97.86a290.66,290.66,0,0,1,25.71,42.67l-9.69,4.11-12.5,5.51-25,11-34.32,15.56-19-40.58c-5.08-10.51-10.07-21.07-15.16-31.58a313,313,0,0,1,78.26-21.47c1.22,1.39,2.44,2.78,3.6,4.23Z"/><path class="cls-2" d="M207.72,93.91l-8.47-10.62c-.33-.39-.68-.76-1-1.15q3.19-.37,6.38-.69c11.63-1.15,23.32-1.66,35-1.67a144.57,144.57,0,0,1,32.45,42.1l-37.5,15.89A289.14,289.14,0,0,0,207.72,93.91Z"/><path class="cls-2" d="M167,58.37c3.24,3,6.3,6.2,9.47,9.3l4.71,4.67,4.39,5,.35.39c-2.89.41-5.78.88-8.68,1.27-4.47.58-8.87,1.62-13.31,2.43s-8.82,1.93-13.21,3a300.6,300.6,0,0,0-41.36,13.91q-2.78-5.68-5.63-11.33L87.66,54.72a143.09,143.09,0,0,1,61.53-11.33Q158.37,50.55,167,58.37Z"/><path class="cls-2" d="M193.52,76.84c-1.12-1.21-2.24-2.43-3.34-3.66l-4.57-5C184,66.62,182.36,65,180.7,63.5c-3.33-3.06-6.56-6.21-10-9.17L160.25,45.8c-.75-.58-1.47-1.2-2.2-1.8a145.42,145.42,0,0,1,14.6,2.19,143.24,143.24,0,0,1,61.68,29.08c-10.07-.17-20.16,0-30.24.68C200.56,76.12,197,76.5,193.52,76.84Z"/><path class="cls-2" d="M131.11,183.76,81.62,206.92c-7.27,3.52-14.56,7-21.84,10.46a309.46,309.46,0,0,1-20.3-67.13c2.34-2.08,4.68-4.17,7.13-6.13L57.12,136a289.75,289.75,0,0,1,45.51-27.1c1.41-.66,2.83-1.29,4.25-1.93l33.31,72.64Z"/><path class="cls-2" d="M31.27,136.74c.33,3.73,1,7.43,1.53,11.14l-.36.33-5,4.57c-1.56,1.64-3.15,3.25-4.68,4.91-3.06,3.33-6.21,6.56-9.17,10L5.06,178.14c-1.39,1.77-2.91,3.44-4.18,5.29L0,184.67A143.85,143.85,0,0,1,29.38,100c0,7.78.22,15.56.73,23.34C30.33,127.79,30.9,132.25,31.27,136.74Z"/><path class="cls-2" d="M17.63,171.37c3-3.24,6.2-6.3,9.3-9.47l4.67-4.71L34,155.12c.52,2.78,1.11,5.54,1.62,8.32.78,4.45,1.93,8.82,3,13.21A301.18,301.18,0,0,0,53.5,220.4c-7.05,3.39-14.09,6.82-21.07,10.35l-21.8,10.86A143.15,143.15,0,0,1,.06,192.54Q8.39,181.58,17.63,171.37Z"/><path class="cls-2" d="M276.71,74.09S278.36,30.88,324.77,0C323.14,53,276.71,74.09,276.71,74.09Z"/><path class="cls-2" d="M296.56,110.95s25.07-35.23,80.83-35.6C347,118.74,296.56,110.95,296.56,110.95Z"/><path class="cls-2" d="M309.7,151.48s39.55-17.49,87.67,10.65C349.08,183.92,309.7,151.48,309.7,151.48Z"/></g></g></svg>