<svg xmlns="http://www.w3.org/2000/svg" viewBox="0 0 168.41 168.41"><defs><style>.cls-1{fill:#33a9e0;}.cls-2{fill:#fff;}</style></defs><title>Asset 15AR</title><g id="Layer_2" data-name="Layer 2"><g id="Layer_1-2" data-name="Layer 1"><circle class="cls-1" cx="84.2" cy="84.2" r="84.2"/><path class="cls-2" d="M90.93,115.92a20.81,20.81,0,0,1-3,1.37c-1.12.45-2.32.88-3.58,1.28h.07c1.18.14,2.37.26,3.54.37l.16,0A33.19,33.19,0,0,0,92,117.5a21.87,21.87,0,0,0,2.85-1.59Z"/><path class="cls-2" d="M105.81,106.05l-.09.27c-.09.31-.2.6-.31.89a26.3,26.3,0,0,1,3.76-3.46,2.83,2.83,0,0,0-1.54-.4,2.91,2.91,0,0,0-.42,0A6,6,0,0,0,105.81,106.05Z"/><path class="cls-2" d="M113.08,104.27c-.87.59-1.92,1.42-3.36,2.6h3.36Z"/><path class="cls-2" d="M97.82,115.91A40.2,40.2,0,0,1,92.67,119l-.62.28.63,0,.5,0,1.28.06c.45,0,.91,0,1.38,0l.46,0,1,0,.57-.06.92-.09.63-.09.84-.12c1.26-.8,2.49-1.67,4.36-3.06Z"/><path class="cls-2" d="M104.51,118l.43-.12.27-.08c.71-.2,1.42-.42,2.1-.64l.15-.05.88-.3.17-.06.91-.32.06,0a5,5,0,0,0,.53-.2l.23-.08.58-.24h-3.48C106.23,116.76,105.63,117.2,104.51,118Z"/><path class="cls-2" d="M122.45,104.81v4.46a35.14,35.14,0,0,1,6.09-3.9,4.75,4.75,0,0,0-3.62-1.3A6.08,6.08,0,0,0,122.45,104.81Z"/><path class="cls-2" d="M101,106.87h3.17l.4-1.25.15-.41c.07-.18.14-.37.22-.56l.2-.41c.09-.17.17-.35.28-.53a6.36,6.36,0,0,1,.68-.94c2.5-2.85,4.52-3.14,6.5-4.74h-.73a21.06,21.06,0,0,0-4.82.55c-2.66.62-3.65,1.42-5.1,1.42a3.83,3.83,0,0,1-.73-.07c-2.06-.34-2.37-1.65-4.6-2.43A7.82,7.82,0,0,0,94,97.05a5,5,0,0,0-.56.06c-.12.5-.23,1-.31,1.55,1.62.87,3.5,2.35,3.89,4.65a10.64,10.64,0,0,1-1.12,3.56Z"/><path class="cls-2" d="M98.75,94.75a2.91,2.91,0,1,0,2.91-2.91A2.91,2.91,0,0,0,98.75,94.75Z"/><path class="cls-2" d="M70.86,104.67a4.33,4.33,0,0,1-.32-1.51c.41-2.41,2.46-3.92,4.14-4.77a7.45,7.45,0,0,0-1-1.47h-.16a7.8,7.8,0,0,0-2.61.43c-2.23.79-2.54,2.1-4.6,2.44a4.78,4.78,0,0,1-.73.06c-1.45,0-2.44-.79-5.1-1.42a21.06,21.06,0,0,0-4.82-.55H55c2,1.6,4,1.89,6.5,4.74a5.61,5.61,0,0,1,.38.51,61.87,61.87,0,0,1,8.27,1.39Z"/><path class="cls-2" d="M68.85,94.6a3,3,0,0,0-.17-.94,22.46,22.46,0,0,0-4.79-1.11,2.87,2.87,0,0,0-.86,2,2.91,2.91,0,0,0,5.82,0Z"/><path class="cls-2" d="M90.13,106.87a65.51,65.51,0,0,0,.94-7.09c.05-.32.09-.64.14-1s.1-.64.15-1c0-.14,0-.28.08-.42.06-.34.14-.69.22-1s.18-.71.29-1a11.73,11.73,0,0,1,.84-2c3.31-6.19,6.83-7.56,9.73-11.29a39,39,0,0,0-9.79,3.32C87.5,87.93,86.38,90,82.8,90.23l-.6,0c-3.39,0-4.61-2-8.73-2.48A13,13,0,0,0,72,87.68a18,18,0,0,0-9.17,2.84l.57,0c.44,0,1.09.12,1.89.25a23.22,23.22,0,0,1,3,.69c.6.18,1.22.38,1.84.63a13.66,13.66,0,0,1,4.57,3,10.27,10.27,0,0,1,.9,1.06,9,9,0,0,1,.73,1.15l.17.33c.07.16.16.3.23.46a1.92,1.92,0,0,1,.1.44,7,7,0,0,1,0,1,34.22,34.22,0,0,1-.75,5.92l-.09.27c1.62.35,3.39.75,5.09,1.15Z"/><path class="cls-2" d="M81.36,75.34a5.8,5.8,0,0,0-1.23.14,5.39,5.39,0,0,0,1.22,10.63A5.73,5.73,0,0,0,82.58,86a5.39,5.39,0,0,0-1.22-10.63Z"/><path class="cls-2" d="M52.42,98.26V76.46a2.87,2.87,0,0,0-2.87-2.87H44L81.21,46.91,95.63,57.38a2.89,2.89,0,0,0,1.69.55,2.87,2.87,0,0,0,2.86-2.8l.38-17.2A2.87,2.87,0,0,0,97.76,35H97.7a2.87,2.87,0,0,0-2.87,2.8l-.26,11.73L82.9,41.06a2.88,2.88,0,0,0-1.68-.55,2.84,2.84,0,0,0-1.67.54L33.37,74.13A2.87,2.87,0,0,0,35,79.33H46.69c0,10.86,0,17,0,25.84,1.89-.57,3.81-1,5.72-1.36Z"/><path class="cls-2" d="M91.45,111.42a3.62,3.62,0,0,1-.84,3.11h23l2.06-.89a29.82,29.82,0,0,0,5.12-3.42l0,0,0-4.52v-2l-.09-24.9h9.55a2.86,2.86,0,0,0,1.63-5.22l-20-13.85V37.87a2.87,2.87,0,1,0-5.73,0V61.18a2.85,2.85,0,0,0,1.23,2.35L121.1,73h-3.26A2.86,2.86,0,0,0,115,75.89v32.88H89.19A4,4,0,0,1,91.45,111.42Z"/><path class="cls-2" d="M131.65,106.07a3,3,0,0,0-1.26.26,41.69,41.69,0,0,0-8.47,5.39l-1.09.83c-.49.36-1,.71-1.42,1l0,0c-.47.33-.93.64-1.38.91h0a13.32,13.32,0,0,1-1.56.84,69.3,69.3,0,0,1-15.75,5.2,31.87,31.87,0,0,1-5.37.49h-.9c-1.77-.07-3.92-.22-6.23-.42-2.67-.25-5.44-.57-8-.94-10.61-1.53-11.62-2.92-12-3.38a1.33,1.33,0,0,1-.21-1.44,1.15,1.15,0,0,1,.29-.33h0a2,2,0,0,1,.44-.28h0a2.64,2.64,0,0,1,.52-.17h.06a4.68,4.68,0,0,1,.54-.07c.21,0,.42,0,.64,0,.37,0,.77,0,1.18,0l.36,0,.95.1.3,0,1.18.17h.09l1,.17h0l.87.16.11,0,.09,0a23.77,23.77,0,0,0,6.19,1A10.21,10.21,0,0,0,87,115a6,6,0,0,0,.79-.42h0c1-.62,2.07-1.59,1.82-2.68a2.07,2.07,0,0,0-1.33-1.41c-.54-.07-2.31-.48-5.4-1.19l-2-.47-2.19-.5-.1,0-1.91-.42-.31-.07-1.8-.39-.35-.07c-.59-.12-1.14-.24-1.64-.33l-.84-.17-2-.41c-1-.23-2.12-.46-3.25-.67l-.08,0c-1.13-.21-2.3-.39-3.51-.53-.49-.06-1-.1-1.48-.15-.75-.05-1.5-.1-2.27-.1a25.07,25.07,0,0,0-5.13.51l-1,.21-.55.11h0c-.93.19-1.85.38-2.77.6l-.18,0c-.93.22-1.86.47-2.77.76-.53.16-1.05.35-1.56.55l-.33.13c-.42.17-.82.35-1.23.54l-.34.16c-.5.25-1,.51-1.47.8l-.15.1c-.43.27-.85.55-1.26.86l-.39.29c-.38.3-.76.62-1.13,1l-.26.23c-.44.42-.88.87-1.31,1.36-.1.12-.2.25-.31.37q-.49.6-1,1.26l-.35.49c-.42.6-.82,1.22-1.22,1.89-.75,1.29-.5,4.63.36,5.93,2,3,16.34,10.25,31.64,10.26,1.49,0,3.06.07,4.66.07,11.85,0,41-1.51,55.52-15.52,2.6-2.5,7.55-8,9.14-9.76A6.53,6.53,0,0,0,131.65,106.07Z"/></g></g></svg>