<svg xmlns="http://www.w3.org/2000/svg" viewBox="0 0 168.41 168.41"><defs><style>.cls-1{fill:#33a9e0;}.cls-2{fill:#fff;}</style></defs><title>Asset 2AS</title><g id="Layer_2" data-name="Layer 2"><g id="Layer_1-2" data-name="Layer 1"><path class="cls-1" d="M84.2,0A84.21,84.21,0,1,1,0,84.2,84.21,84.21,0,0,1,84.2,0"/><path class="cls-2" d="M67.74,129.27s2.44-1.12,5.88,14.52h35.06c-.73-5-1.33-10-1.67-15a24,24,0,0,1,1.63-11.24,55.88,55.88,0,0,0,4.09-13.68c.4-2.7.64-5.44,1.24-8.1a29.45,29.45,0,0,1,6.74-13,94.81,94.81,0,0,0,7.77-10.19A16,16,0,0,1,131,69.48c3.35-3,5.07-6.79,6.17-11,.51-1.9-.35-3-2.34-2.92a7.3,7.3,0,0,0-5.28,2.68,192.78,192.78,0,0,1-15.31,15.87c-1.58,1.42-3,3.11-5.1,3.81s-3.77-.31-3.78-2.67a20.39,20.39,0,0,1,1.43-6.53,38.66,38.66,0,0,0,2.27-10.46,32.34,32.34,0,0,1,1.21-7.94,93.78,93.78,0,0,0,2.47-11.83,7.81,7.81,0,0,0-1.22-5.83,2.8,2.8,0,0,0-3.58-1.33,5.4,5.4,0,0,0-4.05,4c-.34,1.3-.62,2.61-.83,3.94a178.73,178.73,0,0,1-6.06,24,16.67,16.67,0,0,1-2.29,5c-.37.49-.71,1.24-1.49,1s-.93-1-.94-1.71c0-1.64.07-3.28.1-4.92.07-3.57.62-7.12.28-10.72a90,90,0,0,1-.22-19.2,16.73,16.73,0,0,0,0-4.47c-.46-3.12-2.55-6.18-6.83-3.82a5.29,5.29,0,0,0-2.71,4.18c-1.31,7.62-1.26,15.35-1.75,23-.33,5.14.07,10.34-.32,15.5-.07,1,.12,2.1-1.11,2.52a2.75,2.75,0,0,1-2.93-1,14.48,14.48,0,0,1-3.18-5.17c-1.18-3-1.55-6.3-2.84-9.26a87.59,87.59,0,0,1-4-10.93c-.66-2.3-1.3-4.6-2-6.88a6.58,6.58,0,0,0-4.06-4.46c-2.31-.91-3.39-.61-4.66,1.57a9.79,9.79,0,0,0-.7,7.66c1.43,5.54,3.3,10.94,4.4,16.58,1,4.92,2.79,9.64,3.85,14.56,1.41,6.51,2.18,12.94-.26,19.39-1.31,3.44-2.55,4-5.77,2.16a12,12,0,0,1-1.11-.75,109.83,109.83,0,0,1-10.13-9,17.21,17.21,0,0,0-7.3-4.18,9.85,9.85,0,0,0-5.59-.13c-2.29.69-2.95,2.63-1.53,4.46a7.4,7.4,0,0,0,.78.9,78,78,0,0,1,8.49,9.56c4,5,7.73,10.11,10.47,15.91a26.57,26.57,0,0,0,5.07,7.33c3,3,5.87,6.21,8.83,9.3C66.21,127.88,66.57,128.82,67.74,129.27Z"/><path class="cls-1" d="M106.82,97.1c.09,5.28-2.91,9.28-7,12.71s-8.15,6.62-12.06,10.12c-.41.36-.72.57-1.21.07-4.16-4.27-8.73-8.09-12.93-12.33A16.27,16.27,0,0,1,68.9,93.76c.75-6.86,8.91-10.69,14.91-7a10.68,10.68,0,0,1,3.59,3.45c.49.8.73.66,1.24,0a10.28,10.28,0,0,1,8.83-4.32C103.27,86.14,107.38,90.92,106.82,97.1Z"/></g></g></svg>