<svg xmlns="http://www.w3.org/2000/svg" viewBox="0 0 168.41 168.41"><defs><style>.cls-1{fill:#29aae2;}.cls-2{fill:#fff;}.cls-3,.cls-5{fill:none;stroke-miterlimit:10;}.cls-3{stroke:#fff;}.cls-4{fill:#2ca9e1;}.cls-5{stroke:#2ca9e1;stroke-width:0.67px;}</style></defs><g id="Layer_2" data-name="Layer 2"><g id="Layer_1-2" data-name="Layer 1"><path class="cls-1" d="M168.41,84.2A84.21,84.21,0,1,1,84.2,0a84.21,84.21,0,0,1,84.21,84.2"/><path class="cls-2" d="M82.32,138.48A5.35,5.35,0,1,1,77,143.85a5.34,5.34,0,0,1,5.32-5.37"/><path class="cls-3" d="M82.32,138.48A5.35,5.35,0,1,1,77,143.85,5.34,5.34,0,0,1,82.32,138.48Z"/><path class="cls-2" d="M92.07,150.18c1-8.45-1.63-14.4-6.32-15.38C80.58,133.71,61.46,142,61.46,142a31.22,31.22,0,0,0,9-5.8h0c7.65-7.26,7.59-16.43,6.66-21.86-.45-2-1.77-6-5.26-6.32A11.94,11.94,0,0,0,62,112.2l.26-.18a3.1,3.1,0,0,0-.26.41c-.28.16-.3.29-.38.56a14.93,14.93,0,0,0-2.38,3.57,1.27,1.27,0,0,0-.12.43c-1.29.66-2.73,1.81-2.74,3.23a14.42,14.42,0,0,1,16.75-14.43,15.07,15.07,0,0,1,7.8,3.62c17.94,14.73,11.1,40.77,11.1,40.77"/><path class="cls-2" d="M130.15,110.91a5.34,5.34,0,1,0,6.6-3.67,5.34,5.34,0,0,0-6.6,3.67"/><path class="cls-3" d="M130.15,110.91a5.34,5.34,0,1,0,6.6-3.67A5.34,5.34,0,0,0,130.15,110.91Z"/><path class="cls-2" d="M138.79,123.46c-8.43-1.28-13.44-5.45-13.12-10.23.35-5.28,13.52-21.45,13.52-21.45a31.11,31.11,0,0,1-8,7.1s0,0,0,0a.14.14,0,0,0,0,.06c-9.06,5.41-17.87,2.89-22.86.52-1.83-1-5.34-3.33-4.66-6.76a12,12,0,0,1,6.66-8.36l-.24.21a2.44,2.44,0,0,1,.46-.14c.22-.22.36-.2.64-.21a15.15,15.15,0,0,1,4.08-1.34,1.33,1.33,0,0,1,.45,0c1-1.07,2.47-2.14,3.85-1.77a14.51,14.51,0,0,0-18,9.88,13.89,13.89,0,0,0-.47,2.36,15.06,15.06,0,0,0,1.39,8.49c9.35,21.24,36.27,21.68,36.27,21.68"/><path class="cls-2" d="M86.42,78.85a5.86,5.86,0,1,1-7.78,2.83,5.86,5.86,0,0,1,7.78-2.83"/><path class="cls-3" d="M86.42,78.85a5.86,5.86,0,1,1-7.78,2.83A5.86,5.86,0,0,1,86.42,78.85Z"/><path class="cls-2" d="M130.71,58.28a5.34,5.34,0,1,0,.89-7.5,5.35,5.35,0,0,0-.89,7.5"/><path class="cls-3" d="M130.71,58.28a5.34,5.34,0,1,0,.89-7.5A5.35,5.35,0,0,0,130.71,58.28Z"/><path class="cls-2" d="M145.94,58.63c-6,6.08-12.28,7.7-16,4.64-4.08-3.37-9.47-23.51-9.47-23.51a31,31,0,0,1,1.06,10.65l0,0,0,.05c-.91,10.51-8.12,16.18-13,18.83-1.87.91-5.83,2.38-8.22-.18a11.92,11.92,0,0,1-2.87-10.29s0,.12,0,.32a3.57,3.57,0,0,1,.16-.46c0-.31,0-.41.21-.64a15.11,15.11,0,0,1,1.3-4.09,1.3,1.3,0,0,1,.27-.36c-.3-1.42-.29-3.26.82-4.15a14.5,14.5,0,0,0-2.5,20.33,13.72,13.72,0,0,0,1.64,1.76,15.09,15.09,0,0,0,7.69,3.85c22.69,4.86,38.81-16.71,38.81-16.71"/><path class="cls-2" d="M83.42,31a5.34,5.34,0,1,0-5.91-4.71A5.34,5.34,0,0,0,83.42,31"/><path class="cls-3" d="M83.42,31a5.34,5.34,0,1,0-5.91-4.71A5.34,5.34,0,0,0,83.42,31Z"/><path class="cls-2" d="M91.74,18.22c2,8.28.07,14.5-4.47,16-5,1.69-25-4.33-25-4.33a31.16,31.16,0,0,1,9.62,4.71h0c8.45,6.32,9.48,15.43,9.18,20.93-.2,2.07-1,6.21-4.47,6.89a12,12,0,0,1-10.26-3l.28.14a3.57,3.57,0,0,1-.31-.37c-.29-.13-.32-.26-.43-.52a14.81,14.81,0,0,1-2.79-3.26,1.33,1.33,0,0,1-.17-.42c-1.36-.49-2.92-1.47-3.1-2.88A14.51,14.51,0,0,0,75.81,65a15.42,15.42,0,0,0,9.68-5c16.08-16.73,6.25-41.79,6.25-41.79"/><path class="cls-2" d="M34.51,56.92a5.34,5.34,0,1,0-5.94,4.67,5.36,5.36,0,0,0,5.94-4.67"/><path class="cls-3" d="M34.51,56.92a5.34,5.34,0,1,0-5.94,4.67A5.36,5.36,0,0,0,34.51,56.92Z"/><path class="cls-2" d="M24,45.89c8.52-.06,14.13,3.26,14.57,8,.49,5.27-9.94,23.32-9.94,23.32A30.84,30.84,0,0,1,35.4,69V69a.13.13,0,0,1,0-.06c8.08-6.78,17.18-5.68,22.48-4.14,2,.67,5.8,2.44,5.68,5.94a12,12,0,0,1-5.25,9.3l.2-.24a4.37,4.37,0,0,1-.43.22c-.19.25-.32.25-.6.3a14.71,14.71,0,0,1-3.82,2,1.48,1.48,0,0,1-.44.07c-.8,1.21-2.1,2.5-3.52,2.35a14.5,14.5,0,0,0,16.15-12.6,13.84,13.84,0,0,0,.09-2.4,15.07,15.07,0,0,0-2.71-8.16C50.64,42.07,24,45.89,24,45.89"/><path class="cls-2" d="M37.22,108.14a5.34,5.34,0,1,0-2.55,7.11,5.34,5.34,0,0,0,2.55-7.11"/><path class="cls-3" d="M37.22,108.14a5.34,5.34,0,1,0-2.55,7.11A5.34,5.34,0,0,0,37.22,108.14Z"/><path class="cls-2" d="M22.46,104.37c7.19-4.57,13.7-4.73,16.61-.92,3.21,4.21,3.93,25,3.93,25a31.08,31.08,0,0,1,1.36-10.61l0,0s0,0,0,0c3.26-10,11.55-13.93,16.86-15.43,2-.47,6.22-1,8,2a12,12,0,0,1,.48,10.68s0-.12,0-.32a2.36,2.36,0,0,1-.25.41c0,.32-.14.39-.35.58a14.86,14.86,0,0,1-2.19,3.69,1.25,1.25,0,0,1-.34.29c0,1.45-.46,3.24-1.74,3.87a14.43,14.43,0,0,0,5.82-21.33A15.07,15.07,0,0,0,64,96.84c-21-9.84-41.58,7.53-41.58,7.53"/><path class="cls-4" d="M129.73,84.2A45.53,45.53,0,1,1,84.2,38.66,45.54,45.54,0,0,1,129.73,84.2"/><path class="cls-3" d="M129.73,84.2A45.53,45.53,0,1,1,84.2,38.66,45.54,45.54,0,0,1,129.73,84.2Z"/><path class="cls-2" d="M90.7,70.09a7.05,7.05,0,1,0-8.3-5.52,7.05,7.05,0,0,0,8.3,5.52"/><path class="cls-5" d="M90.7,70.09a7.05,7.05,0,1,0-8.3-5.52A7.05,7.05,0,0,0,90.7,70.09Z"/><path class="cls-2" d="M100.19,52.36c3.6,10.65,1.74,19-4.06,21.57-6.4,2.79-33.33-2.85-33.33-2.85A41,41,0,0,1,76,76.17l-.06,0H76c11.83,7.34,14.22,19.2,14.46,26.48,0,2.73-.67,8.27-5.1,9.56a15.75,15.75,0,0,1-13.83-2.74l.38.16c-.08-.11-.38-.33-.44-.46-.4-.13-.46-.3-.63-.62a19.78,19.78,0,0,1-4-4,1.77,1.77,0,0,1-.27-.53c-1.84-.5-4-1.6-4.4-3.44a19,19,0,0,0,25.5,14.18A19.89,19.89,0,0,0,96.74,108c19.24-23.83,3.45-55.66,3.45-55.66"/><path class="cls-5" d="M100.19,52.36c3.6,10.65,1.74,19-4.06,21.57-6.4,2.79-33.33-2.85-33.33-2.85A41,41,0,0,1,76,76.17l-.06,0H76c11.83,7.34,14.22,19.2,14.46,26.48,0,2.73-.67,8.27-5.1,9.56a15.75,15.75,0,0,1-13.83-2.74l.38.16c-.08-.11-.38-.33-.44-.46-.4-.13-.46-.3-.63-.62a19.78,19.78,0,0,1-4-4,1.77,1.77,0,0,1-.27-.53c-1.84-.5-4-1.6-4.4-3.44a19,19,0,0,0,25.5,14.18A19.89,19.89,0,0,0,96.74,108C116,84.19,100.19,52.36,100.19,52.36Z"/></g></g></svg>