<svg xmlns="http://www.w3.org/2000/svg" viewBox="0 0 168.41 168.41"><defs><style>.cls-1{fill:#29aae2;}.cls-2{fill:#fff;}</style></defs><title>Asset 16BE</title><g id="Layer_2" data-name="Layer 2"><g id="Layer_1-2" data-name="Layer 1"><circle class="cls-1" cx="84.2" cy="84.2" r="84.2"/><path class="cls-2" d="M33.63,44v5.15H37V72.89a4.79,4.79,0,0,0-2.89,4.5,6.48,6.48,0,0,0,.06.77h-.06v6H42.9v-6h-.06a4.9,4.9,0,0,0,.06-.77A4.79,4.79,0,0,0,40,72.89V49.11h11.6V76.52l32.58,13,32.58-13V49.11h18V44Z"/><path class="cls-2" d="M67.69,102.69C57.42,99.93,46,104.43,36.1,100.51a1.47,1.47,0,0,0-.76-.16,1.33,1.33,0,0,0-.55.29l-10.43,7.62c2.23-.26,9.55,0,11.55.14q5.85.28,11.67.95a171.66,171.66,0,0,1,23.18,4.3c4.27,1.11,8.44,2.72,12.71,3.78A23.25,23.25,0,0,0,67.69,102.69Z"/><path class="cls-2" d="M71,103.07c-5.75-2.39-12.08-2.93-18.3-3.06-4.24-.09-8.83-.12-12.17-2.73A14,14,0,0,0,45.09,96a4.68,4.68,0,0,0,2.84,1.79c5.41,1.6,11.23.82,16.78,1.81a26.89,26.89,0,0,1,17.74,11.89,12.25,12.25,0,0,1,1.75,4.22,28.24,28.24,0,0,0-4.66-6.87A24.76,24.76,0,0,0,71,103.07Z"/><path class="cls-2" d="M66.82,97.79c-2.76-.59-5.77-.65-8.57-1a19,19,0,0,1-4-.77,7.59,7.59,0,0,1-3.42-2.2,6.76,6.76,0,0,0,3.33-.49A2.45,2.45,0,0,0,55,94.6a8.49,8.49,0,0,0,3.87,1.62c1.39.26,2.81.3,4.22.44a22.46,22.46,0,0,1,10.49,3.41A28.11,28.11,0,0,1,77,102.94,23.82,23.82,0,0,0,66.82,97.79Z"/><path class="cls-2" d="M84.2,119.89s-24.51-9.45-61.55-9.55l-3.46,2.52A193,193,0,0,1,84.2,119.89Z"/><path class="cls-2" d="M100.72,102.75c10.26-2.76,21.71,1.74,31.59-2.18a1.45,1.45,0,0,1,.76-.16,1.54,1.54,0,0,1,.55.29l10.43,7.62c-2.24-.26-9.55.05-11.55.15q-5.85.27-11.68.94a171.81,171.81,0,0,0-23.17,4.3c-4.28,1.11-8.45,2.72-12.71,3.78A23.25,23.25,0,0,1,100.72,102.75Z"/><path class="cls-2" d="M97.37,103.13c5.75-2.39,12.09-2.93,18.31-3.06,4.23-.09,8.83-.12,12.17-2.73A14,14,0,0,1,123.32,96a4.63,4.63,0,0,1-2.84,1.79c-5.41,1.6-11.23.82-16.78,1.81A26.94,26.94,0,0,0,86,111.52a12.44,12.44,0,0,0-1.75,4.22,28.24,28.24,0,0,1,4.67-6.87A24.86,24.86,0,0,1,97.37,103.13Z"/><path class="cls-2" d="M101.59,97.85c2.75-.59,5.76-.64,8.56-1a18.89,18.89,0,0,0,4-.77,7.59,7.59,0,0,0,3.42-2.2,6.63,6.63,0,0,1-3.32-.49,2.41,2.41,0,0,1-.89,1.23,8.4,8.4,0,0,1-3.86,1.62c-1.39.26-2.81.3-4.22.44a22.46,22.46,0,0,0-10.49,3.41A27.36,27.36,0,0,0,91.43,103,23.77,23.77,0,0,1,101.59,97.85Z"/><path class="cls-2" d="M84.2,120s24.52-9.45,61.56-9.55l3.46,2.52A193.06,193.06,0,0,0,84.2,120Z"/><path class="cls-2" d="M36.57,114.38s26.62.61,47.63,7.06v3S72.92,118.59,36.57,114.38Z"/><path class="cls-2" d="M131.83,114.38s-26.62.61-47.63,7.06v3S95.49,118.59,131.83,114.38Z"/></g></g></svg>