<svg xmlns="http://www.w3.org/2000/svg" viewBox="0 0 168.52 168.52"><defs><style>.cls-1{fill:#29aae2;}.cls-2,.cls-3,.cls-5{fill:#fff;}.cls-2,.cls-3,.cls-4{stroke:#fff;stroke-miterlimit:10;}.cls-2{stroke-width:0.57px;}.cls-3{stroke-width:0.95px;}.cls-4{fill:#2ca9e1;stroke-width:1.1px;}</style></defs><g id="Layer_2" data-name="Layer 2"><g id="Layer_1-2" data-name="Layer 1"><circle class="cls-1" cx="84.26" cy="84.26" r="84.26"/><path class="cls-2" d="M82.34,139.64a5.45,5.45,0,1,1-5.43,5.48A5.45,5.45,0,0,1,82.34,139.64Z"/><path class="cls-2" d="M92.29,151.58c1.06-8.63-1.66-14.7-6.45-15.7-5.28-1.11-24.78,7.38-24.78,7.38a31.85,31.85,0,0,0,9.18-5.92h0c7.81-7.4,7.76-16.76,6.8-22.3-.45-2.07-1.8-6.17-5.36-6.45a12.18,12.18,0,0,0-10,4.25l.27-.18a2.19,2.19,0,0,0-.26.41c-.29.16-.3.3-.39.57a15.38,15.38,0,0,0-2.43,3.65,1.26,1.26,0,0,0-.12.44c-1.32.66-2.78,1.84-2.79,3.29a14.8,14.8,0,0,1,14.64-14.92,15.06,15.06,0,0,1,2.44.2A15.36,15.36,0,0,1,81,110C99.26,125,92.29,151.58,92.29,151.58Z"/><path class="cls-2" d="M131.14,111.51a5.45,5.45,0,1,0,6.73-3.75A5.45,5.45,0,0,0,131.14,111.51Z"/><path class="cls-2" d="M140,124.32c-8.59-1.31-13.7-5.57-13.38-10.45.36-5.38,13.79-21.87,13.79-21.87a32,32,0,0,1-8.18,7.24l0,0,0,0c-9.24,5.52-18.23,3-23.32.54-1.87-1-5.45-3.4-4.76-6.9a12.22,12.22,0,0,1,6.79-8.53l-.24.21a2.54,2.54,0,0,1,.47-.14.71.71,0,0,1,.65-.21,15.11,15.11,0,0,1,4.17-1.36,1.13,1.13,0,0,1,.45,0c1-1.09,2.53-2.18,3.93-1.8a14.74,14.74,0,0,0-18.79,12.48,15.3,15.3,0,0,0,1.42,8.66C112.49,123.86,140,124.32,140,124.32Z"/><circle class="cls-3" cx="84" cy="84.22" r="5.98"/><path class="cls-2" d="M131.71,57.82a5.45,5.45,0,1,0,.91-7.66A5.45,5.45,0,0,0,131.71,57.82Z"/><path class="cls-2" d="M147.25,58.17c-6.09,6.2-12.53,7.85-16.29,4.74-4.16-3.45-9.67-24-9.67-24a31.8,31.8,0,0,1,1.09,10.86l0,0,0,0c-.94,10.73-8.29,16.51-13.22,19.22-1.9.93-6,2.42-8.38-.19a12.13,12.13,0,0,1-2.93-10.49s0,.11,0,.32a3.11,3.11,0,0,1,.16-.46c0-.33,0-.42.21-.66a15.27,15.27,0,0,1,1.34-4.17,1,1,0,0,1,.27-.37c-.31-1.45-.3-3.32.83-4.24A14.82,14.82,0,0,0,98.13,69.5a15.85,15.85,0,0,0,1.67,1.79,15.43,15.43,0,0,0,7.85,3.93C130.81,80.17,147.25,58.17,147.25,58.17Z"/><path class="cls-2" d="M83.46,30a5.45,5.45,0,1,0-6-4.8A5.44,5.44,0,0,0,83.46,30Z"/><path class="cls-2" d="M92,16.94C94,25.39,92,31.73,87.38,33.29,82.27,35,61.9,28.87,61.9,28.87a31.6,31.6,0,0,1,9.81,4.8h0c8.62,6.45,9.67,15.74,9.37,21.36-.21,2.11-1.07,6.33-4.57,7a12.2,12.2,0,0,1-10.47-3l.29.15a3.68,3.68,0,0,1-.31-.38c-.3-.13-.33-.26-.45-.52a15.46,15.46,0,0,1-2.84-3.34,1.24,1.24,0,0,1-.17-.42c-1.39-.51-3-1.5-3.16-2.94A14.8,14.8,0,0,0,75.7,64.66a13.6,13.6,0,0,0,2.4-.48,15.41,15.41,0,0,0,7.48-4.6C102,42.51,92,16.94,92,16.94Z"/><path class="cls-2" d="M33.56,56.42a5.45,5.45,0,1,0-6.06,4.77A5.45,5.45,0,0,0,33.56,56.42Z"/><path class="cls-2" d="M22.83,45.18c8.69-.07,14.41,3.32,14.86,8.19.5,5.37-10.14,23.78-10.14,23.78a31.58,31.58,0,0,1,6.92-8.44.43.43,0,0,0,0,.05s0,0,0-.06c8.24-6.92,17.53-5.8,22.93-4.22,2,.68,5.92,2.49,5.79,6.06A12.17,12.17,0,0,1,57.85,80l.21-.25a3,3,0,0,1-.44.22c-.19.26-.33.26-.62.31a15.26,15.26,0,0,1-3.89,2,1.5,1.5,0,0,1-.45.07c-.82,1.23-2.15,2.55-3.59,2.4A14.8,14.8,0,0,0,65.55,71.93a14.38,14.38,0,0,0,.09-2.45,15.36,15.36,0,0,0-2.77-8.33C50,41.27,22.83,45.18,22.83,45.18Z"/><path class="cls-2" d="M36.33,108.69a5.45,5.45,0,1,0-2.61,7.25A5.46,5.46,0,0,0,36.33,108.69Z"/><path class="cls-2" d="M21.27,104.84c7.33-4.67,14-4.83,16.94-.94,3.28,4.29,4,25.55,4,25.55a31.77,31.77,0,0,1,1.39-10.83l0,0a.08.08,0,0,1,0,0c3.32-10.24,11.79-14.22,17.21-15.74,2.06-.48,6.33-1,8.12,2.06a12.2,12.2,0,0,1,.49,10.89s0-.11,0-.32a4.28,4.28,0,0,1-.26.42.74.74,0,0,1-.36.59,15.39,15.39,0,0,1-2.24,3.77,1.28,1.28,0,0,1-.34.29c0,1.48-.46,3.31-1.77,3.94a14.79,14.79,0,0,0,7.16-19.63,15.93,15.93,0,0,0-8-7.72C42.25,87.11,21.27,104.84,21.27,104.84Z"/><circle class="cls-4" cx="83.34" cy="84.26" r="47.27"/><rect class="cls-5" x="56.29" y="98.27" width="54.11" height="3.28"/><rect class="cls-5" x="49.17" y="101.03" width="68.35" height="4.82"/><rect class="cls-5" x="59.23" y="63.77" width="5.51" height="34.51"/><rect class="cls-5" x="69.71" y="63.77" width="5.51" height="34.51"/><rect class="cls-5" x="80.19" y="63.77" width="5.51" height="34.51"/><rect class="cls-5" x="90.68" y="63.77" width="5.52" height="34.51"/><rect class="cls-5" x="101.16" y="63.77" width="5.51" height="34.51"/><polygon class="cls-5" points="115.85 64.05 83.27 47.97 83.23 47.97 50.65 64.05 83.25 63.94 115.85 64.05"/><rect class="cls-5" x="82.95" y="98.27" width="27.45" height="3.28"/><rect class="cls-5" x="82.95" y="101.03" width="34.57" height="4.82"/><polygon class="cls-5" points="83.25 63.94 115.85 64.05 83.27 47.97 83.23 47.97 83.23 63.94 83.25 63.94"/><rect class="cls-5" x="60.37" y="64.91" width="3.24" height="32.23"/><rect class="cls-5" x="70.85" y="64.91" width="3.24" height="32.23"/><rect class="cls-5" x="81.33" y="64.91" width="3.24" height="32.23"/><rect class="cls-5" x="91.81" y="64.91" width="3.24" height="32.23"/><rect class="cls-5" x="102.3" y="64.91" width="3.24" height="32.23"/></g></g></svg>