<?xml version="1.0" encoding="utf-8"?>
<!-- Generator: Adobe Illustrator 21.1.0, SVG Export Plug-In . SVG Version: 6.00 Build 0)  -->
<svg version="1.1" id="Camada_1" xmlns="http://www.w3.org/2000/svg" xmlns:xlink="http://www.w3.org/1999/xlink" x="0px" y="0px"
	 viewBox="0 0 140.6 141" style="enable-background:new 0 0 140.6 141;" xml:space="preserve">
<style type="text/css">
	.st0{fill:#FFFFFF;}
	.st1{fill:#33A9E0;}
</style>
<path class="st0" d="M48.1,137c0,0,18.3,6.8,41.9,0.8s35.4-78.6,35.4-78.6L75,33.3L47.5,43.5L30.8,71.6L48.1,137z"/>
<title>OP_1</title>
<g id="Camada_2">
	<g id="Camada_1-2">
		<path class="st1" d="M70.3,0C31.5,0,0,31.5,0,70.3c0,32.4,22.1,60.6,53.5,68.3c0.1,0,0.2-0.1,0.3-0.1h33.6
			c37.7-9.4,60.5-47.6,51.1-85.3C130.7,21.9,102.6,0,70.3,0z M89.6,136.4c0,0.4-0.3,0.7-0.7,0.7H53.8c-0.4,0-0.7-0.3-0.7-0.7v-1.1
			c0-0.4,0.3-0.7,0.7-0.7h35.1c0.4,0,0.7,0.3,0.7,0.7L89.6,136.4z M54.1,132.6v-1.1c0-0.4,0.3-0.7,0.7-0.7h33.1
			c0.4,0,0.7,0.3,0.7,0.7v1.1c0,0.4-0.3,0.7-0.7,0.7H54.7C54.4,133.3,54.1,133,54.1,132.6L54.1,132.6L54.1,132.6z M98.2,99.8
			c-2.4,3.6-3.7,7.9-3.6,12.3c0,0.3,0,0.6,0,0.9c0,5.7-2.1,11.2-5.9,15.4H54.2c-3.8-4.2-5.9-9.7-5.9-15.4c0-0.4,0-0.8,0-1.2
			c0.3-4.2-0.8-8.4-3.1-11.9c-9.5-14.6-5.4-34.2,9.2-43.7s34.2-5.4,43.7,9.2C104.9,75.8,104.9,89.3,98.2,99.8L98.2,99.8z"/>
		<path class="st0" d="M79,24.4l15.7-8.7c0.7-0.4,1.6-0.1,1.9,0.6c0.3,0.5,0.2,1.2-0.2,1.7l-17,17.2c-4.4,4.4-11.5,4.4-16,0
			c0,0,0,0,0,0L46.1,17.9c-0.6-0.6-0.5-1.5,0-2c0.4-0.4,1.1-0.5,1.7-0.2l15.9,8.8C68.5,27,74.2,27,79,24.4z"/>
		<path class="st0" d="M40.9,33.7l4.9-17.2c0.2-0.8,1-1.2,1.8-1c0.6,0.2,1,0.7,1,1.4l0,24.2c0,6.2-5,11.3-11.3,11.3l-24.4,0
			c-0.8,0-1.4-0.6-1.4-1.4c0-0.6,0.4-1.2,1-1.4l17.5-5C35.3,43.1,39.4,39,40.9,33.7z"/>
		<path class="st0" d="M112.7,44.9l17.2,4.9c0.8,0.2,1.2,1,1,1.8c-0.2,0.6-0.7,1-1.4,1l-24.2,0c-6.2,0-11.3-5-11.3-11.2c0,0,0,0,0,0
			V17c0-0.8,0.6-1.4,1.4-1.4c0.6,0,1.2,0.4,1.4,1l5,17.5C103.3,39.3,107.4,43.4,112.7,44.9z"/>
		<circle class="st0" cx="71.9" cy="17.4" r="4.7"/>
		<circle class="st0" cx="30.2" cy="33.8" r="4.7"/>
		<ellipse transform="matrix(0.7071 -0.7071 0.7071 0.7071 7.9386 89.5231)" class="st0" cx="112" cy="35.2" rx="4.7" ry="4.7"/>
	</g>
</g>
</svg>
