<svg xmlns="http://www.w3.org/2000/svg" viewBox="0 0 168.41 168.41"><defs><style>.cls-1{fill:#29aae2;}.cls-2{fill:#fff;}.cls-3{fill:none;stroke:#29aae2;stroke-linecap:round;stroke-linejoin:round;}</style></defs><title>Asset 20RH</title><g id="Layer_2" data-name="Layer 2"><g id="Layer_1-2" data-name="Layer 1"><circle class="cls-1" cx="84.2" cy="84.2" r="84.2"/><path class="cls-2" d="M54,128.41c-.89,0-15.49,1.34-15.47-10.57,0-6.37-.81-17.74-.6-19.71,1.74-16.76,8-19.5,16.06-19.73,8.86-.24,16.35,5.24,16.11,20.12-.18,11.57-.39,12.75-.71,19.44C68.76,130.44,55,128.42,54,128.41Z"/><path class="cls-1" d="M56,75.37l1.38,4.9L55.42,82.9H52.49l-2-2.63,1.38-4.9H56m0-.75H51.92a.76.76,0,0,0-.72.55l-1.38,4.9a.76.76,0,0,0,.12.65l1.94,2.62a.77.77,0,0,0,.61.31h2.93a.76.76,0,0,0,.6-.31L58,80.72a.76.76,0,0,0,.12-.65l-1.38-4.9a.75.75,0,0,0-.72-.55Z"/><path class="cls-1" d="M55.44,84.09l1.91,24.13-3.3,4.57-3.48-4.35,1.94-24.35h2.93m0-.75H52.51a.75.75,0,0,0-.75.69l-1.94,24.35a.74.74,0,0,0,.16.52l3.49,4.36a.77.77,0,0,0,.58.28h0a.74.74,0,0,0,.59-.31l3.3-4.57a.81.81,0,0,0,.14-.5L56.19,84a.75.75,0,0,0-.75-.69Z"/><circle class="cls-2" cx="53.95" cy="66.83" r="10.23"/><path class="cls-2" d="M114.45,128.41c-.9,0-15.5,1.34-15.47-10.57,0-6.37-.81-17.74-.61-19.71,1.75-16.76,8-19.5,16.07-19.73,8.86-.24,16.34,5.24,16.11,20.12-.19,11.57-.39,12.75-.71,19.44C129.25,130.44,115.48,128.42,114.45,128.41Z"/><path class="cls-1" d="M120.94,87.69V78h-1.1v.33h-.22l.21,9.85c-1.33.58-6.57,2.61-10,0v-10h-1.11v9.73C97,91.14,94,99.86,93.92,100.24l1,.34c0-.08,3-8.54,14.09-11.62a8.05,8.05,0,0,0,5,1.61A16.15,16.15,0,0,0,120.64,89l.28-.14c10.65,2.94,11.81,6.85,11.82,6.88l1.08-.25C133.78,95.28,132.64,90.85,120.94,87.69Z"/><path class="cls-2" d="M118.62,75c2.4-1.53,3.61-4.48,3.61-8.79a5.8,5.8,0,0,0-.4-2.19A42,42,0,0,1,107.52,69c.42,2.81,1.55,4.82,3.34,6a1.47,1.47,0,0,1,.67,1.24v.39a10.16,10.16,0,0,0,5.23.16,9.28,9.28,0,0,0,1.17-.35v-.16A1.47,1.47,0,0,1,118.62,75Z"/><path class="cls-2" d="M128,70.69c-2.41-6.07-2.34-17.09-13.28-17.09-10.58,0-10.27,9.66-13.09,18-1.18,3.52,4,5.45,8.43,6.27V76.24a7.26,7.26,0,0,1-.78-.59c-1.72-1.46-3.12-3.92-3.39-8,5.54-.39,11.4-2.67,16.52-5.64a7.16,7.16,0,0,1,1.3,4.21,13.64,13.64,0,0,1-1.92,7.69,8,8,0,0,1-2.38,2.34V78C124.28,77.24,129.83,75.29,128,70.69Z"/><path class="cls-2" d="M87.49,129c-1.25,0-2.24-.08-2.84-.13l-.45,0h-.32c-.37,0-1,0-1.74,0-4.33,0-10.28-.78-14-4.52a12.13,12.13,0,0,1-3.35-9c0-3.91-.24-9.36-.46-14.16s-.4-8.78-.28-10C66.13,71.23,73.3,67,84.18,66.71h.71c5.4,0,10,1.77,13.31,5.14,4.26,4.32,6.34,11,6.2,20-.17,10.73-.35,14.1-.61,18.76-.08,1.47-.16,3-.26,5C103,127.29,93.24,129,87.49,129Z"/><path class="cls-1" d="M84.89,67.2c10.53,0,19.29,6.81,19,24.62-.23,14.15-.48,15.6-.87,23.78-.54,11.51-10.26,12.94-15.54,12.94-1.73,0-3-.16-3.29-.16h0c-.21,0-1,.05-2,.05-5,0-16.89-1.07-16.86-13,0-7.8-1-21.72-.74-24.12,2.14-20.5,9.79-23.86,19.65-24.13h.7m0-1h-.73c-10.84.3-18.49,4.67-20.61,25-.13,1.27,0,5.16.27,10.09s.46,10.23.46,14.13a12.61,12.61,0,0,0,3.49,9.3c3.86,3.86,9.94,4.67,14.37,4.67.78,0,1.39,0,1.76,0h.29l.42,0c.6.05,1.61.13,2.88.13,5.93,0,16-1.81,16.54-13.89.1-2,.18-3.57.26-5,.25-4.66.44-8,.61-18.77.14-9.09-2-15.94-6.34-20.36C95.16,68,90.43,66.2,84.89,66.2Z"/><circle class="cls-2" cx="84.19" cy="52.39" r="12.52"/><path class="cls-2" d="M122.94,132.59a2.87,2.87,0,0,1-1.85-.68l-14.73-12.66a.91.91,0,0,1-.1-1.26l.33-.38-10.1-8.68a19.42,19.42,0,0,1-12.4,4.48,19.2,19.2,0,0,1-12.51-4.64,19.66,19.66,0,0,1-2.14-27.55A19.3,19.3,0,0,1,96.78,79a19.79,19.79,0,0,1,3.46,25.78l10,8.57a.85.85,0,0,1,.56-.2.87.87,0,0,1,.57.22L126.09,126a2.9,2.9,0,0,1,.31,4l-1.28,1.52a2.85,2.85,0,0,1-2.18,1ZM84.23,78.79A15,15,0,0,0,72.8,84.1a15.21,15.21,0,0,0,1.66,21.29,14.9,14.9,0,0,0,21.09-1.73A15.19,15.19,0,0,0,93.9,82.38,14.82,14.82,0,0,0,84.23,78.79Z"/><path class="cls-1" d="M84.24,74.84a18.67,18.67,0,0,1,12.21,4.53,19.17,19.17,0,0,1,3.13,25.49L110.26,114l.22-.26a.39.39,0,0,1,.55,0l1.93,1.66.61.53.85.73.61.52,10.73,9.22a2.38,2.38,0,0,1,.26,3.35l-1.28,1.51a2.35,2.35,0,0,1-3.32.28l-14.73-12.66a.39.39,0,0,1,0-.55l.65-.77-10.8-9.28a18.87,18.87,0,0,1-12.4,4.64,18.63,18.63,0,0,1-12.18-4.51,19.18,19.18,0,0,1-2.09-26.86,18.85,18.85,0,0,1,14.42-6.7m-.11,34.63A15.46,15.46,0,0,0,95.94,104a15.69,15.69,0,0,0-1.72-22,15.26,15.26,0,0,0-10-3.71,15.44,15.44,0,0,0-11.81,5.49,15.7,15.7,0,0,0,1.71,22,15.29,15.29,0,0,0,10,3.71m.11-35.63h0A19.86,19.86,0,0,0,69.05,80.9a20.17,20.17,0,0,0,2.2,28.25,19.79,19.79,0,0,0,25.23.43l9.41,8.08h0a1.41,1.41,0,0,0,.15,2l14.74,12.65a3.28,3.28,0,0,0,2.17.81,3.35,3.35,0,0,0,2.57-1.19l1.28-1.51a3.4,3.4,0,0,0-.38-4.76l-10.73-9.21-.61-.53-.85-.73-.61-.53L111.68,113a1.41,1.41,0,0,0-.9-.33,1.35,1.35,0,0,0-.5.09l-9.38-8a20.29,20.29,0,0,0-3.8-26.07,19.71,19.71,0,0,0-12.86-4.77Zm-.11,34.63A14.33,14.33,0,0,1,74.78,105a14.7,14.7,0,0,1-1.6-20.57,14.38,14.38,0,0,1,20.39-1.67,14.69,14.69,0,0,1,1.6,20.58,14.44,14.44,0,0,1-11,5.13Z"/><path class="cls-3" d="M78.32,85.52s6.53-5.51,13.15-.46"/><path class="cls-3" d="M92.77,87.36s.46.24,1,2"/></g></g></svg>