<svg xmlns="http://www.w3.org/2000/svg" viewBox="0 0 168.41 168.41"><defs><style>.cls-1{fill:#29aae2;}.cls-2,.cls-5,.cls-7{fill:#fff;}.cls-3{fill:none;stroke-width:0.86px;}.cls-3,.cls-5,.cls-6{stroke:#fff;}.cls-3,.cls-5,.cls-6,.cls-7{stroke-miterlimit:10;}.cls-4,.cls-6{fill:#2ca9e1;}.cls-5{stroke-width:0.52px;}.cls-7{stroke:#29aae2;}</style></defs><g id="Layer_2" data-name="Layer 2"><g id="Layer_1-2" data-name="Layer 1"><path class="cls-1" d="M168.41,84.2A84.21,84.21,0,1,1,84.2,0a84.21,84.21,0,0,1,84.21,84.2"/><path class="cls-2" d="M78.77,83.79a6,6,0,1,1-7.94,2.88,6,6,0,0,1,7.94-2.88"/><path class="cls-3" d="M78.77,83.79a6,6,0,1,1-7.94,2.88A6,6,0,0,1,78.77,83.79Z"/><path class="cls-4" d="M112,77.26A18.56,18.56,0,0,0,76.5,69.61a18.55,18.55,0,1,0-31,19.74,17.51,17.51,0,0,0,2.07,2.06l28.31,28.12a.89.89,0,0,0,1.26,0l29.36-29.17h0a18.78,18.78,0,0,0,4.33-6.81,18.44,18.44,0,0,0,1.1-6.29"/><path class="cls-2" d="M82.28,139.55A5.45,5.45,0,1,1,76.86,145a5.44,5.44,0,0,1,5.42-5.47"/><path class="cls-5" d="M92.23,151.47c1-8.62-1.66-14.68-6.45-15.68C80.5,134.68,61,143.16,61,143.16a31.7,31.7,0,0,0,9.18-5.91h0C78,129.84,77.94,120.49,77,115c-.45-2.07-1.8-6.16-5.36-6.44a12.18,12.18,0,0,0-10,4.24l.27-.18a4.81,4.81,0,0,0-.27.41c-.28.16-.3.3-.38.58a15.12,15.12,0,0,0-2.43,3.64,1.27,1.27,0,0,0-.12.43c-1.32.67-2.78,1.84-2.79,3.3A14.79,14.79,0,0,1,70.51,106a15.07,15.07,0,0,1,2.44.19,15.34,15.34,0,0,1,8,3.7C99.19,124.92,92.23,151.47,92.23,151.47Z"/><path class="cls-2" d="M131.05,111.43a5.45,5.45,0,1,0,6.73-3.74,5.46,5.46,0,0,0-6.73,3.74"/><path class="cls-5" d="M139.85,124.23c-8.58-1.31-13.69-5.56-13.37-10.43.36-5.39,13.78-21.87,13.78-21.87a31.43,31.43,0,0,1-8.17,7.24l0,0,0,.06c-9.24,5.51-18.22,2.94-23.3.53-1.87-1-5.45-3.4-4.76-6.9a12.19,12.19,0,0,1,6.79-8.51l-.25.2c.11,0,.37-.14.47-.14a.72.72,0,0,1,.66-.21,15.27,15.27,0,0,1,4.16-1.36,1.42,1.42,0,0,1,.46,0c1-1.09,2.51-2.18,3.92-1.8a14.79,14.79,0,0,0-18.3,10.07,14.48,14.48,0,0,0-.48,2.41,15.36,15.36,0,0,0,1.42,8.65C112.41,123.78,139.85,124.23,139.85,124.23Z"/><path class="cls-2" d="M131.62,57.78a5.45,5.45,0,1,0,.91-7.65,5.44,5.44,0,0,0-.91,7.65"/><path class="cls-2" d="M147.15,58.13c-6.08,6.2-12.52,7.85-16.29,4.73-4.15-3.44-9.65-24-9.65-24a31.53,31.53,0,0,1,1.08,10.86l0,0,0,0C121.36,60.48,114,66.25,109.08,69c-1.9.93-5.94,2.43-8.37-.18a12.16,12.16,0,0,1-2.93-10.49s0,.11,0,.32c0-.1.1-.38.16-.46,0-.32.05-.42.21-.66a15.27,15.27,0,0,1,1.34-4.17,1.31,1.31,0,0,1,.27-.37c-.3-1.45-.3-3.32.83-4.23a14.79,14.79,0,0,0-2.55,20.73,15.06,15.06,0,0,0,1.68,1.79,15.27,15.27,0,0,0,7.84,3.92c23.14,5,39.57-17,39.57-17"/><path class="cls-2" d="M83.4,29.94a5.44,5.44,0,1,0-6-4.79,5.44,5.44,0,0,0,6,4.79"/><path class="cls-5" d="M91.88,16.93c2.06,8.44.08,14.78-4.56,16.34C82.21,35,61.86,28.85,61.86,28.85a31.65,31.65,0,0,1,9.8,4.8h0C80.29,40.09,81.33,49.38,81,55c-.21,2.11-1.06,6.33-4.56,7A12.18,12.18,0,0,1,66,59l.28.15c-.06-.09-.27-.28-.3-.38-.3-.13-.34-.26-.45-.52A15.65,15.65,0,0,1,62.7,54.9a1.17,1.17,0,0,1-.17-.43c-1.39-.5-3-1.5-3.16-2.94A14.69,14.69,0,0,0,78.05,64.14a15.34,15.34,0,0,0,7.47-4.6C101.91,42.48,91.88,16.93,91.88,16.93Z"/><path class="cls-2" d="M33.53,56.39a5.44,5.44,0,1,0-6.05,4.76,5.45,5.45,0,0,0,6.05-4.76"/><path class="cls-5" d="M22.81,45.15c8.69-.08,14.4,3.31,14.86,8.18.5,5.37-10.14,23.77-10.14,23.77a31.74,31.74,0,0,1,6.92-8.44.09.09,0,0,0,0,0s0,0,0-.06c8.24-6.91,17.52-5.79,22.92-4.21,2,.68,5.92,2.48,5.79,6A12.15,12.15,0,0,1,57.81,80s.08-.08.21-.24a2.93,2.93,0,0,1-.44.21c-.19.27-.33.27-.62.32a15.24,15.24,0,0,1-3.89,2,1.5,1.5,0,0,1-.45.07c-.81,1.24-2.14,2.55-3.59,2.4A14.8,14.8,0,0,0,65.51,71.89a16.08,16.08,0,0,0-2.68-10.78C50,41.24,22.81,45.15,22.81,45.15Z"/><path class="cls-2" d="M36.3,108.61a5.45,5.45,0,1,0-2.6,7.25,5.44,5.44,0,0,0,2.6-7.25"/><path class="cls-5" d="M21.25,104.77c7.33-4.67,14-4.82,16.94-.94,3.27,4.29,4,25.53,4,25.53a31.71,31.71,0,0,1,1.39-10.82l0,0s0,0,0,0c3.32-10.23,11.78-14.21,17.19-15.73,2.06-.48,6.34-1,8.12,2.06a12.18,12.18,0,0,1,.49,10.88s0-.11,0-.31c-.07.08-.18.34-.26.41,0,.32-.14.4-.35.59a15.46,15.46,0,0,1-2.24,3.76,1.19,1.19,0,0,1-.35.3c0,1.48-.46,3.3-1.77,3.94a14.79,14.79,0,0,0,7.16-19.63,15.78,15.78,0,0,0-1.22-2.12,15.45,15.45,0,0,0-6.76-5.59C42.22,87.05,21.25,104.77,21.25,104.77Z"/><path class="cls-6" d="M131.44,84.2A47.24,47.24,0,1,1,84.2,37,47.24,47.24,0,0,1,131.44,84.2"/><path class="cls-7" d="M119.43,75.3A18.43,18.43,0,0,0,84.2,67.7,18.43,18.43,0,0,0,49,75.3,18.2,18.2,0,0,0,50,81.41a18.4,18.4,0,0,0,3.42,5.9,18,18,0,0,0,2.06,2l28.12,27.94a.89.89,0,0,0,.63.26.91.91,0,0,0,.63-.26l29.16-29h0a18.6,18.6,0,0,0,4.3-6.76,18.25,18.25,0,0,0,1.09-6.25"/></g></g></svg>